<svg width="547" height="362" viewBox="0 0 547 362" fill="none" xmlns="http://www.w3.org/2000/svg">
<g clip-path="url(#clip0_160_745)">
<rect width="547" height="362" rx="16" fill="#F8F9FA"/>
<rect x="428" y="30" width="273" height="301" rx="16" fill="url(#paint0_linear_160_745)"/>
<rect x="452" y="54" width="225" height="110" rx="8" fill="#F8F9FA"/>
<rect x="478.5" y="188" width="172" height="38" rx="4" fill="#F8F9FA"/>
<rect x="478.5" y="234" width="172" height="17" rx="4" fill="#F8F9FA"/>
<rect x="499.5" y="275" width="130" height="32" rx="16" fill="#F8F9FA"/>
<rect x="137" y="-290" width="273" height="301" rx="16" fill="url(#paint1_linear_160_745)"/>
<rect x="-154" y="30" width="273" height="301" rx="16" fill="url(#paint2_linear_160_745)"/>
<rect x="-130" y="54" width="225" height="110" rx="8" fill="#F8F9FA"/>
<rect x="-103.5" y="188" width="172" height="38" rx="4" fill="#F8F9FA"/>
<rect x="-103.5" y="234" width="172" height="17" rx="4" fill="#F8F9FA"/>
<rect x="-82.5" y="275" width="130" height="32" rx="16" fill="#F8F9FA"/>
<g filter="url(#filter0_dd_160_745)">
<rect x="137" y="38" width="273" height="301" rx="16" fill="white"/>
<g clip-path="url(#clip1_160_745)">
<rect x="161" y="62" width="225" height="110" rx="8" fill="#F2F3F5"/>
<path d="M153.5 175.5L394.5 60.5" stroke="white" stroke-width="5"/>
<path d="M292.5 109.5V109.5C303.81 118.872 318.038 124 332.727 124H401.5" stroke="white" stroke-width="5"/>
<path d="M293 109V109C261.902 86.2378 223.146 76.5174 184.987 81.9094L152.5 86.5" stroke="white" stroke-width="5"/>
<path d="M252.5 128L384 180" stroke="white" stroke-width="5"/>
<path d="M254.5 127.5H219.889C208.194 127.5 202.38 113.322 210.708 105.112V105.112C217.027 98.8817 215.438 88.3011 207.568 84.2021L199.5 80" stroke="white" stroke-width="5"/>
<path d="M263 132L264.455 134.474C269.208 142.553 266.648 152.949 258.687 157.897V157.897C255.95 159.598 252.792 160.5 249.57 160.5H238.582C224.997 160.5 211.879 165.46 201.692 174.448L200.5 175.5" stroke="white" stroke-width="5"/>
<path d="M321 95C340 94 381.6 91.5 388 77.5" stroke="white" stroke-width="5"/>
<path d="M318 121.5C333.167 115.167 365.7 99.5 374.5 87.5" stroke="white" stroke-width="5"/>
<path d="M279.5 100.5C279.5 100.5 275.916 84.2911 279.5 75C287.144 55.1817 331 57.5 331 57.5M237 82.9999L248.5 57.5" stroke="white" stroke-width="5"/>
<path d="M243 69.5C243 69.5 265.25 69.3425 279 72.5C297.995 76.8618 324.5 93 324.5 93" stroke="white" stroke-width="5"/>
<path d="M256.5 90C256.5 90 230.207 111.951 210 119C190.86 125.677 158.5 125.5 158.5 125.5" stroke="white" stroke-width="5"/>
<path d="M320 121.5L282 139M361 125.5L320 154.5M392 125.5L361 170.5" stroke="white" stroke-width="5"/>
<path d="M260 156L301.5 175" stroke="white" stroke-width="5"/>
<rect x="257" y="101" width="32" height="32" rx="16" fill="black"/>
<path d="M273 123.667V119.5L270.083 116.583L273.417 113.25L276.333 116.167H280.083" stroke="white" stroke-width="1.5" stroke-linecap="round" stroke-linejoin="round"/>
<path d="M280.012 109.988C280.663 110.639 280.663 111.694 280.012 112.345C279.361 112.996 278.306 112.996 277.655 112.345C277.004 111.694 277.004 110.639 277.655 109.988C278.306 109.337 279.361 109.337 280.012 109.988Z" stroke="white" stroke-width="1.5" stroke-linecap="round" stroke-linejoin="round"/>
<path d="M281.333 122C281.333 123.381 280.214 124.5 278.833 124.5C277.453 124.5 276.333 123.381 276.333 122C276.333 120.619 277.453 119.5 278.833 119.5C280.214 119.5 281.333 120.619 281.333 122Z" stroke="white" stroke-width="1.5" stroke-linecap="round" stroke-linejoin="round"/>
<path d="M269.667 122C269.667 123.381 268.547 124.5 267.167 124.5C265.786 124.5 264.667 123.381 264.667 122C264.667 120.619 265.786 119.5 267.167 119.5C268.547 119.5 269.667 120.619 269.667 122Z" stroke="white" stroke-width="1.5" stroke-linecap="round" stroke-linejoin="round"/>
</g>
<path d="M200.054 211.125C199.71 211.125 199.414 211.004 199.168 210.761C198.922 210.519 198.801 210.223 198.804 209.875C198.801 209.534 198.922 209.242 199.168 209C199.414 208.758 199.71 208.636 200.054 208.636C200.388 208.636 200.678 208.758 200.924 209C201.174 209.242 201.301 209.534 201.304 209.875C201.301 210.106 201.24 210.316 201.123 210.506C201.009 210.695 200.858 210.847 200.668 210.96C200.483 211.07 200.278 211.125 200.054 211.125ZM204.535 211.125C204.19 211.125 203.895 211.004 203.649 210.761C203.403 210.519 203.281 210.223 203.285 209.875C203.281 209.534 203.403 209.242 203.649 209C203.895 208.758 204.19 208.636 204.535 208.636C204.868 208.636 205.158 208.758 205.404 209C205.654 209.242 205.781 209.534 205.785 209.875C205.781 210.106 205.721 210.316 205.603 210.506C205.49 210.695 205.338 210.847 205.149 210.96C204.963 211.07 204.759 211.125 204.535 211.125ZM209.016 211.125C208.671 211.125 208.376 211.004 208.129 210.761C207.883 210.519 207.762 210.223 207.766 209.875C207.762 209.534 207.883 209.242 208.129 209C208.376 208.758 208.671 208.636 209.016 208.636C209.349 208.636 209.639 208.758 209.885 209C210.135 209.242 210.262 209.534 210.266 209.875C210.262 210.106 210.201 210.316 210.084 210.506C209.97 210.695 209.819 210.847 209.629 210.96C209.444 211.07 209.239 211.125 209.016 211.125ZM216.587 202.273V203.864H211.57V202.273H216.587ZM212.809 200.182H214.866V208.375C214.866 208.652 214.907 208.864 214.991 209.011C215.078 209.155 215.191 209.254 215.332 209.307C215.472 209.36 215.627 209.386 215.797 209.386C215.926 209.386 216.044 209.377 216.15 209.358C216.26 209.339 216.343 209.322 216.4 209.307L216.746 210.915C216.637 210.953 216.479 210.994 216.275 211.04C216.074 211.085 215.828 211.112 215.536 211.119C215.021 211.134 214.557 211.057 214.144 210.886C213.731 210.712 213.404 210.443 213.161 210.08C212.922 209.716 212.805 209.261 212.809 208.716V200.182ZM220.392 205.886V211H218.335V199.364H220.346V203.756H220.449C220.653 203.263 220.969 202.875 221.397 202.591C221.829 202.303 222.379 202.159 223.045 202.159C223.651 202.159 224.18 202.286 224.63 202.54C225.081 202.794 225.43 203.165 225.676 203.653C225.926 204.142 226.051 204.739 226.051 205.443V211H223.994V205.761C223.994 205.174 223.843 204.718 223.539 204.392C223.24 204.062 222.82 203.898 222.278 203.898C221.914 203.898 221.589 203.977 221.301 204.136C221.017 204.292 220.793 204.517 220.63 204.812C220.471 205.108 220.392 205.466 220.392 205.886ZM231.851 211.17C230.976 211.17 230.22 210.989 229.584 210.625C228.951 210.258 228.465 209.739 228.124 209.068C227.783 208.394 227.612 207.6 227.612 206.688C227.612 205.79 227.783 205.002 228.124 204.324C228.469 203.642 228.95 203.112 229.567 202.733C230.184 202.35 230.91 202.159 231.743 202.159C232.281 202.159 232.789 202.246 233.266 202.42C233.747 202.591 234.171 202.856 234.539 203.216C234.91 203.576 235.201 204.034 235.414 204.591C235.626 205.144 235.732 205.803 235.732 206.568V207.199H228.578V205.812H233.76C233.756 205.419 233.671 205.068 233.504 204.761C233.338 204.451 233.105 204.206 232.806 204.028C232.51 203.85 232.165 203.761 231.772 203.761C231.351 203.761 230.982 203.864 230.664 204.068C230.345 204.269 230.097 204.534 229.919 204.864C229.745 205.189 229.656 205.547 229.652 205.938V207.148C229.652 207.655 229.745 208.091 229.931 208.455C230.116 208.814 230.376 209.091 230.709 209.284C231.042 209.473 231.433 209.568 231.879 209.568C232.179 209.568 232.45 209.527 232.692 209.443C232.934 209.356 233.145 209.229 233.323 209.062C233.501 208.896 233.635 208.689 233.726 208.443L235.647 208.659C235.525 209.167 235.294 209.61 234.953 209.989C234.616 210.364 234.184 210.655 233.658 210.864C233.131 211.068 232.529 211.17 231.851 211.17ZM241.121 211V202.273H243.115V203.727H243.206C243.365 203.223 243.638 202.835 244.024 202.562C244.414 202.286 244.859 202.148 245.359 202.148C245.473 202.148 245.6 202.153 245.74 202.165C245.884 202.172 246.003 202.186 246.098 202.205V204.097C246.011 204.066 245.872 204.04 245.683 204.017C245.497 203.991 245.318 203.977 245.143 203.977C244.768 203.977 244.431 204.059 244.132 204.222C243.836 204.381 243.604 204.602 243.433 204.886C243.263 205.17 243.177 205.498 243.177 205.869V211H241.121ZM247.304 211V202.273H249.361V211H247.304ZM248.338 201.034C248.013 201.034 247.732 200.926 247.497 200.71C247.263 200.491 247.145 200.227 247.145 199.92C247.145 199.61 247.263 199.347 247.497 199.131C247.732 198.911 248.013 198.801 248.338 198.801C248.668 198.801 248.948 198.911 249.179 199.131C249.414 199.347 249.532 199.61 249.532 199.92C249.532 200.227 249.414 200.491 249.179 200.71C248.948 200.926 248.668 201.034 248.338 201.034ZM254.555 211.153C253.869 211.153 253.256 210.977 252.714 210.625C252.172 210.273 251.744 209.761 251.43 209.091C251.115 208.42 250.958 207.606 250.958 206.648C250.958 205.678 251.117 204.86 251.436 204.193C251.757 203.523 252.191 203.017 252.737 202.676C253.282 202.331 253.89 202.159 254.561 202.159C255.072 202.159 255.492 202.246 255.822 202.42C256.151 202.591 256.413 202.797 256.606 203.04C256.799 203.278 256.949 203.504 257.055 203.716H257.14V199.364H259.203V211H257.18V209.625H257.055C256.949 209.837 256.795 210.062 256.595 210.301C256.394 210.536 256.129 210.737 255.799 210.903C255.47 211.07 255.055 211.153 254.555 211.153ZM255.129 209.466C255.564 209.466 255.936 209.348 256.242 209.114C256.549 208.875 256.782 208.544 256.941 208.119C257.1 207.695 257.18 207.201 257.18 206.636C257.18 206.072 257.1 205.581 256.941 205.165C256.786 204.748 256.555 204.424 256.248 204.193C255.945 203.962 255.572 203.847 255.129 203.847C254.67 203.847 254.288 203.966 253.981 204.205C253.674 204.443 253.443 204.773 253.288 205.193C253.132 205.614 253.055 206.095 253.055 206.636C253.055 207.182 253.132 207.669 253.288 208.097C253.447 208.521 253.68 208.856 253.987 209.102C254.297 209.345 254.678 209.466 255.129 209.466ZM265.098 211.17C264.223 211.17 263.467 210.989 262.831 210.625C262.198 210.258 261.712 209.739 261.371 209.068C261.03 208.394 260.859 207.6 260.859 206.688C260.859 205.79 261.03 205.002 261.371 204.324C261.715 203.642 262.196 203.112 262.814 202.733C263.431 202.35 264.157 202.159 264.99 202.159C265.528 202.159 266.035 202.246 266.513 202.42C266.994 202.591 267.418 202.856 267.785 203.216C268.157 203.576 268.448 204.034 268.66 204.591C268.873 205.144 268.979 205.803 268.979 206.568V207.199H261.825V205.812H267.007C267.003 205.419 266.918 205.068 266.751 204.761C266.585 204.451 266.352 204.206 266.052 204.028C265.757 203.85 265.412 203.761 265.018 203.761C264.598 203.761 264.229 203.864 263.91 204.068C263.592 204.269 263.344 204.534 263.166 204.864C262.992 205.189 262.903 205.547 262.899 205.938V207.148C262.899 207.655 262.992 208.091 263.177 208.455C263.363 208.814 263.623 209.091 263.956 209.284C264.289 209.473 264.679 209.568 265.126 209.568C265.426 209.568 265.696 209.527 265.939 209.443C266.181 209.356 266.392 209.229 266.57 209.062C266.748 208.896 266.882 208.689 266.973 208.443L268.893 208.659C268.772 209.167 268.541 209.61 268.2 209.989C267.863 210.364 267.431 210.655 266.905 210.864C266.378 211.068 265.776 211.17 265.098 211.17ZM270.559 211V202.273H272.553V203.727H272.644C272.803 203.223 273.076 202.835 273.462 202.562C273.852 202.286 274.297 202.148 274.797 202.148C274.911 202.148 275.038 202.153 275.178 202.165C275.322 202.172 275.441 202.186 275.536 202.205V204.097C275.449 204.066 275.311 204.04 275.121 204.017C274.936 203.991 274.756 203.977 274.581 203.977C274.206 203.977 273.869 204.059 273.57 204.222C273.275 204.381 273.042 204.602 272.871 204.886C272.701 205.17 272.616 205.498 272.616 205.869V211H270.559ZM280.551 211V202.273H282.608V211H280.551ZM281.585 201.034C281.26 201.034 280.979 200.926 280.744 200.71C280.51 200.491 280.392 200.227 280.392 199.92C280.392 199.61 280.51 199.347 280.744 199.131C280.979 198.911 281.26 198.801 281.585 198.801C281.915 198.801 282.195 198.911 282.426 199.131C282.661 199.347 282.778 199.61 282.778 199.92C282.778 200.227 282.661 200.491 282.426 200.71C282.195 200.926 281.915 201.034 281.585 201.034ZM291.461 204.58L289.586 204.784C289.533 204.595 289.44 204.417 289.307 204.25C289.179 204.083 289.004 203.949 288.785 203.847C288.565 203.744 288.296 203.693 287.978 203.693C287.55 203.693 287.19 203.786 286.898 203.972C286.61 204.157 286.468 204.398 286.472 204.693C286.468 204.947 286.561 205.153 286.751 205.312C286.944 205.472 287.262 205.602 287.705 205.705L289.194 206.023C290.02 206.201 290.633 206.483 291.035 206.869C291.44 207.256 291.645 207.761 291.648 208.386C291.645 208.936 291.484 209.42 291.165 209.841C290.851 210.258 290.413 210.583 289.853 210.818C289.292 211.053 288.648 211.17 287.921 211.17C286.853 211.17 285.993 210.947 285.341 210.5C284.69 210.049 284.302 209.422 284.177 208.619L286.182 208.426C286.273 208.82 286.466 209.117 286.762 209.318C287.057 209.519 287.442 209.619 287.915 209.619C288.404 209.619 288.796 209.519 289.091 209.318C289.391 209.117 289.54 208.869 289.54 208.574C289.54 208.324 289.444 208.117 289.251 207.955C289.061 207.792 288.766 207.667 288.364 207.58L286.876 207.267C286.038 207.093 285.419 206.799 285.018 206.386C284.616 205.97 284.417 205.443 284.421 204.807C284.417 204.269 284.563 203.803 284.859 203.409C285.158 203.011 285.573 202.705 286.103 202.489C286.637 202.269 287.252 202.159 287.949 202.159C288.972 202.159 289.777 202.377 290.364 202.812C290.955 203.248 291.321 203.837 291.461 204.58ZM299.05 205.886V211H296.993V199.364H299.004V203.756H299.107C299.311 203.263 299.628 202.875 300.056 202.591C300.487 202.303 301.037 202.159 301.703 202.159C302.309 202.159 302.838 202.286 303.289 202.54C303.739 202.794 304.088 203.165 304.334 203.653C304.584 204.142 304.709 204.739 304.709 205.443V211H302.652V205.761C302.652 205.174 302.501 204.718 302.198 204.392C301.898 204.062 301.478 203.898 300.936 203.898C300.573 203.898 300.247 203.977 299.959 204.136C299.675 204.292 299.451 204.517 299.289 204.812C299.129 205.108 299.05 205.466 299.05 205.886ZM310.509 211.17C309.634 211.17 308.879 210.989 308.242 210.625C307.61 210.258 307.123 209.739 306.782 209.068C306.441 208.394 306.271 207.6 306.271 206.688C306.271 205.79 306.441 205.002 306.782 204.324C307.127 203.642 307.608 203.112 308.225 202.733C308.843 202.35 309.568 202.159 310.401 202.159C310.939 202.159 311.447 202.246 311.924 202.42C312.405 202.591 312.829 202.856 313.197 203.216C313.568 203.576 313.86 204.034 314.072 204.591C314.284 205.144 314.39 205.803 314.39 206.568V207.199H307.236V205.812H312.418C312.415 205.419 312.329 205.068 312.163 204.761C311.996 204.451 311.763 204.206 311.464 204.028C311.168 203.85 310.824 203.761 310.43 203.761C310.009 203.761 309.64 203.864 309.322 204.068C309.004 204.269 308.755 204.534 308.577 204.864C308.403 205.189 308.314 205.547 308.31 205.938V207.148C308.31 207.655 308.403 208.091 308.589 208.455C308.774 208.814 309.034 209.091 309.367 209.284C309.7 209.473 310.091 209.568 310.538 209.568C310.837 209.568 311.108 209.527 311.35 209.443C311.593 209.356 311.803 209.229 311.981 209.062C312.159 208.896 312.293 208.689 312.384 208.443L314.305 208.659C314.183 209.167 313.952 209.61 313.611 209.989C313.274 210.364 312.843 210.655 312.316 210.864C311.79 211.068 311.187 211.17 310.509 211.17ZM315.97 211V202.273H317.964V203.727H318.055C318.214 203.223 318.487 202.835 318.873 202.562C319.264 202.286 319.709 202.148 320.209 202.148C320.322 202.148 320.449 202.153 320.589 202.165C320.733 202.172 320.853 202.186 320.947 202.205V204.097C320.86 204.066 320.722 204.04 320.532 204.017C320.347 203.991 320.167 203.977 319.993 203.977C319.618 203.977 319.281 204.059 318.981 204.222C318.686 204.381 318.453 204.602 318.282 204.886C318.112 205.17 318.027 205.498 318.027 205.869V211H315.97ZM325.658 211.17C324.783 211.17 324.027 210.989 323.391 210.625C322.758 210.258 322.272 209.739 321.931 209.068C321.59 208.394 321.419 207.6 321.419 206.688C321.419 205.79 321.59 205.002 321.931 204.324C322.275 203.642 322.756 203.112 323.374 202.733C323.991 202.35 324.717 202.159 325.55 202.159C326.088 202.159 326.595 202.246 327.073 202.42C327.554 202.591 327.978 202.856 328.345 203.216C328.717 203.576 329.008 204.034 329.22 204.591C329.433 205.144 329.539 205.803 329.539 206.568V207.199H322.385V205.812H327.567C327.563 205.419 327.478 205.068 327.311 204.761C327.145 204.451 326.912 204.206 326.612 204.028C326.317 203.85 325.972 203.761 325.578 203.761C325.158 203.761 324.789 203.864 324.47 204.068C324.152 204.269 323.904 204.534 323.726 204.864C323.552 205.189 323.463 205.547 323.459 205.938V207.148C323.459 207.655 323.552 208.091 323.737 208.455C323.923 208.814 324.183 209.091 324.516 209.284C324.849 209.473 325.239 209.568 325.686 209.568C325.986 209.568 326.256 209.527 326.499 209.443C326.741 209.356 326.952 209.229 327.13 209.062C327.308 208.896 327.442 208.689 327.533 208.443L329.453 208.659C329.332 209.167 329.101 209.61 328.76 209.989C328.423 210.364 327.991 210.655 327.465 210.864C326.938 211.068 326.336 211.17 325.658 211.17ZM339.285 202.273V203.864H334.268V202.273H339.285ZM335.507 200.182H337.564V208.375C337.564 208.652 337.605 208.864 337.689 209.011C337.776 209.155 337.89 209.254 338.03 209.307C338.17 209.36 338.325 209.386 338.496 209.386C338.624 209.386 338.742 209.377 338.848 209.358C338.958 209.339 339.041 209.322 339.098 209.307L339.444 210.915C339.335 210.953 339.177 210.994 338.973 211.04C338.772 211.085 338.526 211.112 338.234 211.119C337.719 211.134 337.255 211.057 336.842 210.886C336.429 210.712 336.102 210.443 335.859 210.08C335.621 209.716 335.503 209.261 335.507 208.716V200.182ZM344.559 211.17C343.706 211.17 342.968 210.983 342.343 210.608C341.718 210.233 341.233 209.708 340.888 209.034C340.547 208.36 340.377 207.572 340.377 206.67C340.377 205.769 340.547 204.979 340.888 204.301C341.233 203.623 341.718 203.097 342.343 202.722C342.968 202.347 343.706 202.159 344.559 202.159C345.411 202.159 346.15 202.347 346.775 202.722C347.4 203.097 347.882 203.623 348.223 204.301C348.568 204.979 348.74 205.769 348.74 206.67C348.74 207.572 348.568 208.36 348.223 209.034C347.882 209.708 347.4 210.233 346.775 210.608C346.15 210.983 345.411 211.17 344.559 211.17ZM344.57 209.523C345.032 209.523 345.418 209.396 345.729 209.142C346.04 208.884 346.271 208.54 346.422 208.108C346.578 207.676 346.655 207.195 346.655 206.665C346.655 206.131 346.578 205.648 346.422 205.216C346.271 204.78 346.04 204.434 345.729 204.176C345.418 203.919 345.032 203.79 344.57 203.79C344.097 203.79 343.703 203.919 343.388 204.176C343.078 204.434 342.845 204.78 342.689 205.216C342.538 205.648 342.462 206.131 342.462 206.665C342.462 207.195 342.538 207.676 342.689 208.108C342.845 208.54 343.078 208.884 343.388 209.142C343.703 209.396 344.097 209.523 344.57 209.523ZM195.434 233.273V221.273H197.457V222.716H197.576C197.682 222.504 197.832 222.278 198.025 222.04C198.218 221.797 198.48 221.591 198.809 221.42C199.139 221.246 199.559 221.159 200.071 221.159C200.745 221.159 201.353 221.331 201.895 221.676C202.44 222.017 202.872 222.523 203.19 223.193C203.512 223.86 203.673 224.678 203.673 225.648C203.673 226.606 203.516 227.42 203.201 228.091C202.887 228.761 202.459 229.273 201.917 229.625C201.376 229.977 200.762 230.153 200.076 230.153C199.576 230.153 199.162 230.07 198.832 229.903C198.503 229.737 198.237 229.536 198.037 229.301C197.84 229.062 197.686 228.837 197.576 228.625H197.491V233.273H195.434ZM197.451 225.636C197.451 226.201 197.531 226.695 197.69 227.119C197.853 227.544 198.086 227.875 198.389 228.114C198.696 228.348 199.067 228.466 199.503 228.466C199.957 228.466 200.338 228.345 200.645 228.102C200.951 227.856 201.182 227.521 201.338 227.097C201.497 226.669 201.576 226.182 201.576 225.636C201.576 225.095 201.499 224.614 201.343 224.193C201.188 223.773 200.957 223.443 200.65 223.205C200.343 222.966 199.961 222.847 199.503 222.847C199.063 222.847 198.69 222.962 198.383 223.193C198.076 223.424 197.843 223.748 197.684 224.165C197.529 224.581 197.451 225.072 197.451 225.636ZM205.274 230V221.273H207.331V230H205.274ZM206.308 220.034C205.983 220.034 205.702 219.926 205.468 219.71C205.233 219.491 205.115 219.227 205.115 218.92C205.115 218.61 205.233 218.347 205.468 218.131C205.702 217.911 205.983 217.801 206.308 217.801C206.638 217.801 206.918 217.911 207.149 218.131C207.384 218.347 207.502 218.61 207.502 218.92C207.502 219.227 207.384 219.491 207.149 219.71C206.918 219.926 206.638 220.034 206.308 220.034ZM213.093 230.17C212.222 230.17 211.474 229.979 210.849 229.597C210.227 229.214 209.748 228.686 209.411 228.011C209.078 227.333 208.911 226.553 208.911 225.67C208.911 224.784 209.082 224.002 209.423 223.324C209.763 222.642 210.245 222.112 210.866 221.733C211.491 221.35 212.229 221.159 213.082 221.159C213.79 221.159 214.417 221.29 214.962 221.551C215.512 221.809 215.949 222.174 216.275 222.648C216.601 223.117 216.786 223.667 216.832 224.295H214.866C214.786 223.875 214.597 223.525 214.298 223.244C214.002 222.96 213.606 222.818 213.11 222.818C212.69 222.818 212.32 222.932 212.002 223.159C211.684 223.383 211.436 223.705 211.258 224.125C211.084 224.545 210.996 225.049 210.996 225.636C210.996 226.231 211.084 226.742 211.258 227.17C211.432 227.595 211.676 227.922 211.991 228.153C212.309 228.381 212.682 228.494 213.11 228.494C213.413 228.494 213.684 228.437 213.923 228.324C214.165 228.206 214.368 228.038 214.531 227.818C214.693 227.598 214.805 227.331 214.866 227.017H216.832C216.782 227.634 216.601 228.182 216.286 228.659C215.972 229.133 215.544 229.504 215.002 229.773C214.46 230.038 213.824 230.17 213.093 230.17ZM220.236 227.261L220.23 224.778H220.559L223.696 221.273H226.099L222.241 225.568H221.815L220.236 227.261ZM218.361 230V218.364H220.417V230H218.361ZM223.838 230L220.997 226.028L222.383 224.58L226.298 230H223.838ZM232.872 226.33V221.273H234.929V230H232.935V228.449H232.844C232.647 228.937 232.323 229.337 231.872 229.648C231.425 229.958 230.874 230.114 230.219 230.114C229.647 230.114 229.141 229.987 228.702 229.733C228.266 229.475 227.925 229.102 227.679 228.614C227.433 228.121 227.31 227.527 227.31 226.83V221.273H229.367V226.511C229.367 227.064 229.518 227.504 229.821 227.83C230.124 228.155 230.522 228.318 231.014 228.318C231.318 228.318 231.611 228.244 231.895 228.097C232.179 227.949 232.412 227.729 232.594 227.438C232.78 227.142 232.872 226.773 232.872 226.33ZM236.884 233.273V221.273H238.907V222.716H239.026C239.132 222.504 239.282 222.278 239.475 222.04C239.668 221.797 239.93 221.591 240.259 221.42C240.589 221.246 241.009 221.159 241.521 221.159C242.195 221.159 242.803 221.331 243.345 221.676C243.89 222.017 244.322 222.523 244.64 223.193C244.962 223.86 245.123 224.678 245.123 225.648C245.123 226.606 244.966 227.42 244.651 228.091C244.337 228.761 243.909 229.273 243.367 229.625C242.826 229.977 242.212 230.153 241.526 230.153C241.026 230.153 240.612 230.07 240.282 229.903C239.953 229.737 239.687 229.536 239.487 229.301C239.29 229.062 239.136 228.837 239.026 228.625H238.941V233.273H236.884ZM238.901 225.636C238.901 226.201 238.981 226.695 239.14 227.119C239.303 227.544 239.536 227.875 239.839 228.114C240.146 228.348 240.517 228.466 240.953 228.466C241.407 228.466 241.788 228.345 242.095 228.102C242.401 227.856 242.632 227.521 242.788 227.097C242.947 226.669 243.026 226.182 243.026 225.636C243.026 225.095 242.949 224.614 242.793 224.193C242.638 223.773 242.407 223.443 242.1 223.205C241.793 222.966 241.411 222.847 240.953 222.847C240.513 222.847 240.14 222.962 239.833 223.193C239.526 223.424 239.293 223.748 239.134 224.165C238.979 224.581 238.901 225.072 238.901 225.636ZM251.811 233.273C251.531 233.273 251.272 233.25 251.033 233.205C250.798 233.163 250.611 233.114 250.471 233.057L250.948 231.455C251.247 231.542 251.514 231.583 251.749 231.58C251.984 231.576 252.19 231.502 252.368 231.358C252.55 231.218 252.704 230.983 252.829 230.653L253.005 230.182L249.84 221.273H252.022L254.033 227.864H254.124L256.141 221.273H258.329L254.834 231.057C254.671 231.519 254.455 231.915 254.186 232.244C253.918 232.578 253.588 232.831 253.198 233.006C252.811 233.184 252.349 233.273 251.811 233.273ZM263.102 230.17C262.249 230.17 261.511 229.983 260.886 229.608C260.261 229.233 259.776 228.708 259.431 228.034C259.09 227.36 258.92 226.572 258.92 225.67C258.92 224.769 259.09 223.979 259.431 223.301C259.776 222.623 260.261 222.097 260.886 221.722C261.511 221.347 262.249 221.159 263.102 221.159C263.954 221.159 264.693 221.347 265.318 221.722C265.943 222.097 266.426 222.623 266.767 223.301C267.111 223.979 267.284 224.769 267.284 225.67C267.284 226.572 267.111 227.36 266.767 228.034C266.426 228.708 265.943 229.233 265.318 229.608C264.693 229.983 263.954 230.17 263.102 230.17ZM263.113 228.523C263.575 228.523 263.962 228.396 264.272 228.142C264.583 227.884 264.814 227.54 264.965 227.108C265.121 226.676 265.198 226.195 265.198 225.665C265.198 225.131 265.121 224.648 264.965 224.216C264.814 223.78 264.583 223.434 264.272 223.176C263.962 222.919 263.575 222.79 263.113 222.79C262.64 222.79 262.246 222.919 261.931 223.176C261.621 223.434 261.388 223.78 261.232 224.216C261.081 224.648 261.005 225.131 261.005 225.665C261.005 226.195 261.081 226.676 261.232 227.108C261.388 227.54 261.621 227.884 261.931 228.142C262.246 228.396 262.64 228.523 263.113 228.523ZM274.432 226.33V221.273H276.489V230H274.494V228.449H274.403C274.206 228.937 273.883 229.337 273.432 229.648C272.985 229.958 272.434 230.114 271.778 230.114C271.206 230.114 270.701 229.987 270.261 229.733C269.826 229.475 269.485 229.102 269.239 228.614C268.992 228.121 268.869 227.527 268.869 226.83V221.273H270.926V226.511C270.926 227.064 271.078 227.504 271.381 227.83C271.684 228.155 272.081 228.318 272.574 228.318C272.877 228.318 273.17 228.244 273.455 228.097C273.739 227.949 273.972 227.729 274.153 227.438C274.339 227.142 274.432 226.773 274.432 226.33ZM278.444 230V221.273H280.438V222.727H280.529C280.688 222.223 280.961 221.835 281.347 221.562C281.737 221.286 282.182 221.148 282.682 221.148C282.796 221.148 282.923 221.153 283.063 221.165C283.207 221.172 283.326 221.186 283.421 221.205V223.097C283.334 223.066 283.196 223.04 283.006 223.017C282.821 222.991 282.641 222.977 282.466 222.977C282.091 222.977 281.754 223.059 281.455 223.222C281.16 223.381 280.927 223.602 280.756 223.886C280.586 224.17 280.501 224.498 280.501 224.869V230H278.444ZM288.436 233.273V221.273H290.459V222.716H290.578C290.684 222.504 290.834 222.278 291.027 222.04C291.22 221.797 291.482 221.591 291.811 221.42C292.141 221.246 292.561 221.159 293.073 221.159C293.747 221.159 294.355 221.331 294.896 221.676C295.442 222.017 295.874 222.523 296.192 223.193C296.514 223.86 296.675 224.678 296.675 225.648C296.675 226.606 296.518 227.42 296.203 228.091C295.889 228.761 295.461 229.273 294.919 229.625C294.377 229.977 293.764 230.153 293.078 230.153C292.578 230.153 292.163 230.07 291.834 229.903C291.504 229.737 291.239 229.536 291.038 229.301C290.842 229.062 290.688 228.837 290.578 228.625H290.493V233.273H288.436ZM290.453 225.636C290.453 226.201 290.533 226.695 290.692 227.119C290.855 227.544 291.088 227.875 291.391 228.114C291.698 228.348 292.069 228.466 292.504 228.466C292.959 228.466 293.34 228.345 293.646 228.102C293.953 227.856 294.184 227.521 294.34 227.097C294.499 226.669 294.578 226.182 294.578 225.636C294.578 225.095 294.501 224.614 294.345 224.193C294.19 223.773 293.959 223.443 293.652 223.205C293.345 222.966 292.963 222.847 292.504 222.847C292.065 222.847 291.692 222.962 291.385 223.193C291.078 223.424 290.845 223.748 290.686 224.165C290.531 224.581 290.453 225.072 290.453 225.636ZM300.788 230.176C300.235 230.176 299.736 230.078 299.293 229.881C298.854 229.68 298.505 229.384 298.248 228.994C297.994 228.604 297.867 228.123 297.867 227.551C297.867 227.059 297.958 226.652 298.14 226.33C298.322 226.008 298.57 225.75 298.884 225.557C299.199 225.364 299.553 225.218 299.947 225.119C300.344 225.017 300.755 224.943 301.18 224.898C301.691 224.845 302.106 224.797 302.424 224.756C302.742 224.71 302.973 224.642 303.117 224.551C303.265 224.456 303.339 224.311 303.339 224.114V224.08C303.339 223.652 303.212 223.32 302.958 223.085C302.704 222.85 302.339 222.733 301.861 222.733C301.358 222.733 300.958 222.843 300.663 223.062C300.371 223.282 300.174 223.542 300.072 223.841L298.151 223.568C298.303 223.038 298.553 222.595 298.901 222.239C299.25 221.879 299.676 221.61 300.18 221.432C300.683 221.25 301.24 221.159 301.85 221.159C302.271 221.159 302.689 221.208 303.106 221.307C303.522 221.405 303.903 221.568 304.248 221.795C304.592 222.019 304.869 222.324 305.077 222.71C305.289 223.097 305.396 223.58 305.396 224.159V230H303.418V228.801H303.35C303.225 229.044 303.049 229.271 302.822 229.483C302.598 229.691 302.316 229.86 301.975 229.989C301.638 230.114 301.242 230.176 300.788 230.176ZM301.322 228.665C301.735 228.665 302.092 228.583 302.396 228.42C302.699 228.254 302.931 228.034 303.094 227.761C303.261 227.489 303.344 227.191 303.344 226.869V225.841C303.28 225.894 303.17 225.943 303.015 225.989C302.863 226.034 302.693 226.074 302.503 226.108C302.314 226.142 302.127 226.172 301.941 226.199C301.755 226.225 301.594 226.248 301.458 226.267C301.151 226.309 300.877 226.377 300.634 226.472C300.392 226.566 300.2 226.699 300.06 226.869C299.92 227.036 299.85 227.252 299.85 227.517C299.85 227.896 299.988 228.182 300.265 228.375C300.541 228.568 300.894 228.665 301.322 228.665ZM311.111 230.17C310.239 230.17 309.491 229.979 308.866 229.597C308.245 229.214 307.766 228.686 307.429 228.011C307.095 227.333 306.929 226.553 306.929 225.67C306.929 224.784 307.099 224.002 307.44 223.324C307.781 222.642 308.262 222.112 308.883 221.733C309.508 221.35 310.247 221.159 311.099 221.159C311.807 221.159 312.434 221.29 312.98 221.551C313.529 221.809 313.967 222.174 314.292 222.648C314.618 223.117 314.804 223.667 314.849 224.295H312.883C312.804 223.875 312.614 223.525 312.315 223.244C312.02 222.96 311.624 222.818 311.128 222.818C310.707 222.818 310.338 222.932 310.02 223.159C309.701 223.383 309.453 223.705 309.275 224.125C309.101 224.545 309.014 225.049 309.014 225.636C309.014 226.231 309.101 226.742 309.275 227.17C309.45 227.595 309.694 227.922 310.008 228.153C310.326 228.381 310.7 228.494 311.128 228.494C311.431 228.494 311.701 228.437 311.94 228.324C312.182 228.206 312.385 228.038 312.548 227.818C312.711 227.598 312.823 227.331 312.883 227.017H314.849C314.8 227.634 314.618 228.182 314.304 228.659C313.989 229.133 313.561 229.504 313.02 229.773C312.478 230.038 311.842 230.17 311.111 230.17ZM318.253 227.261L318.247 224.778H318.577L321.713 221.273H324.117L320.259 225.568H319.833L318.253 227.261ZM316.378 230V218.364H318.435V230H316.378ZM321.855 230L319.014 226.028L320.401 224.58L324.316 230H321.855ZM327.839 230.176C327.286 230.176 326.788 230.078 326.344 229.881C325.905 229.68 325.557 229.384 325.299 228.994C325.045 228.604 324.918 228.123 324.918 227.551C324.918 227.059 325.009 226.652 325.191 226.33C325.373 226.008 325.621 225.75 325.935 225.557C326.25 225.364 326.604 225.218 326.998 225.119C327.396 225.017 327.807 224.943 328.231 224.898C328.742 224.845 329.157 224.797 329.475 224.756C329.793 224.71 330.024 224.642 330.168 224.551C330.316 224.456 330.39 224.311 330.39 224.114V224.08C330.39 223.652 330.263 223.32 330.009 223.085C329.755 222.85 329.39 222.733 328.913 222.733C328.409 222.733 328.009 222.843 327.714 223.062C327.422 223.282 327.225 223.542 327.123 223.841L325.202 223.568C325.354 223.038 325.604 222.595 325.952 222.239C326.301 221.879 326.727 221.61 327.231 221.432C327.735 221.25 328.291 221.159 328.901 221.159C329.322 221.159 329.74 221.208 330.157 221.307C330.574 221.405 330.954 221.568 331.299 221.795C331.644 222.019 331.92 222.324 332.129 222.71C332.341 223.097 332.447 223.58 332.447 224.159V230H330.469V228.801H330.401C330.276 229.044 330.1 229.271 329.873 229.483C329.649 229.691 329.367 229.86 329.026 229.989C328.689 230.114 328.293 230.176 327.839 230.176ZM328.373 228.665C328.786 228.665 329.144 228.583 329.447 228.42C329.75 228.254 329.983 228.034 330.146 227.761C330.312 227.489 330.396 227.191 330.396 226.869V225.841C330.331 225.894 330.221 225.943 330.066 225.989C329.915 226.034 329.744 226.074 329.555 226.108C329.365 226.142 329.178 226.172 328.992 226.199C328.807 226.225 328.646 226.248 328.509 226.267C328.202 226.309 327.928 226.377 327.685 226.472C327.443 226.566 327.252 226.699 327.112 226.869C326.971 227.036 326.901 227.252 326.901 227.517C326.901 227.896 327.04 228.182 327.316 228.375C327.593 228.568 327.945 228.665 328.373 228.665ZM338.15 233.455C337.412 233.455 336.777 233.354 336.247 233.153C335.717 232.956 335.291 232.691 334.969 232.358C334.647 232.025 334.423 231.655 334.298 231.25L336.15 230.801C336.234 230.972 336.355 231.14 336.514 231.307C336.673 231.477 336.887 231.617 337.156 231.727C337.429 231.841 337.772 231.898 338.184 231.898C338.768 231.898 339.251 231.756 339.633 231.472C340.016 231.191 340.207 230.729 340.207 230.085V228.432H340.105C339.999 228.644 339.844 228.862 339.639 229.085C339.438 229.309 339.171 229.496 338.838 229.648C338.508 229.799 338.094 229.875 337.594 229.875C336.923 229.875 336.315 229.718 335.77 229.403C335.228 229.085 334.796 228.612 334.474 227.983C334.156 227.35 333.997 226.559 333.997 225.608C333.997 224.65 334.156 223.841 334.474 223.182C334.796 222.519 335.23 222.017 335.775 221.676C336.321 221.331 336.929 221.159 337.599 221.159C338.111 221.159 338.531 221.246 338.861 221.42C339.194 221.591 339.459 221.797 339.656 222.04C339.853 222.278 340.003 222.504 340.105 222.716H340.219V221.273H342.247V230.142C342.247 230.888 342.069 231.506 341.713 231.994C341.357 232.483 340.87 232.848 340.253 233.091C339.635 233.333 338.934 233.455 338.15 233.455ZM338.167 228.261C338.603 228.261 338.974 228.155 339.281 227.943C339.588 227.731 339.821 227.426 339.98 227.028C340.139 226.631 340.219 226.153 340.219 225.597C340.219 225.047 340.139 224.566 339.98 224.153C339.825 223.741 339.594 223.42 339.287 223.193C338.984 222.962 338.611 222.847 338.167 222.847C337.709 222.847 337.327 222.966 337.02 223.205C336.713 223.443 336.482 223.771 336.327 224.188C336.171 224.6 336.094 225.07 336.094 225.597C336.094 226.131 336.171 226.598 336.327 227C336.486 227.398 336.719 227.708 337.025 227.932C337.336 228.152 337.717 228.261 338.167 228.261ZM348.059 230.17C347.184 230.17 346.428 229.989 345.792 229.625C345.159 229.258 344.672 228.739 344.331 228.068C343.99 227.394 343.82 226.6 343.82 225.688C343.82 224.79 343.99 224.002 344.331 223.324C344.676 222.642 345.157 222.112 345.774 221.733C346.392 221.35 347.117 221.159 347.951 221.159C348.489 221.159 348.996 221.246 349.473 221.42C349.954 221.591 350.379 221.856 350.746 222.216C351.117 222.576 351.409 223.034 351.621 223.591C351.833 224.144 351.939 224.803 351.939 225.568V226.199H344.786V224.812H349.968C349.964 224.419 349.879 224.068 349.712 223.761C349.545 223.451 349.312 223.206 349.013 223.028C348.718 222.85 348.373 222.761 347.979 222.761C347.559 222.761 347.189 222.864 346.871 223.068C346.553 223.269 346.305 223.534 346.127 223.864C345.953 224.189 345.864 224.547 345.86 224.938V226.148C345.86 226.655 345.953 227.091 346.138 227.455C346.324 227.814 346.583 228.091 346.917 228.284C347.25 228.473 347.64 228.568 348.087 228.568C348.386 228.568 348.657 228.527 348.899 228.443C349.142 228.356 349.352 228.229 349.53 228.062C349.708 227.896 349.843 227.689 349.934 227.443L351.854 227.659C351.733 228.167 351.502 228.61 351.161 228.989C350.824 229.364 350.392 229.655 349.865 229.864C349.339 230.068 348.737 230.17 348.059 230.17Z" fill="#333333"/>
<path d="M188.733 256V245.818H189.966V254.906H194.699V256H188.733ZM198.71 256.179C198.226 256.179 197.787 256.088 197.393 255.906C196.998 255.72 196.685 255.453 196.453 255.105C196.221 254.754 196.105 254.33 196.105 253.832C196.105 253.395 196.191 253.04 196.363 252.768C196.536 252.493 196.766 252.278 197.054 252.122C197.343 251.966 197.661 251.85 198.009 251.774C198.36 251.695 198.713 251.632 199.068 251.585C199.532 251.526 199.908 251.481 200.197 251.451C200.488 251.418 200.7 251.363 200.833 251.287C200.969 251.211 201.037 251.078 201.037 250.889V250.849C201.037 250.359 200.902 249.978 200.634 249.706C200.369 249.434 199.966 249.298 199.426 249.298C198.866 249.298 198.427 249.421 198.108 249.666C197.79 249.911 197.567 250.173 197.437 250.452L196.324 250.054C196.523 249.59 196.788 249.229 197.119 248.97C197.454 248.708 197.818 248.526 198.213 248.423C198.611 248.317 199.002 248.264 199.386 248.264C199.631 248.264 199.913 248.294 200.231 248.354C200.553 248.41 200.863 248.528 201.161 248.707C201.463 248.886 201.713 249.156 201.912 249.517C202.111 249.878 202.21 250.362 202.21 250.969V256H201.037V254.966H200.977C200.898 255.132 200.765 255.309 200.579 255.498C200.394 255.687 200.147 255.848 199.839 255.98C199.53 256.113 199.154 256.179 198.71 256.179ZM198.889 255.125C199.353 255.125 199.744 255.034 200.062 254.852C200.384 254.669 200.626 254.434 200.788 254.146C200.954 253.857 201.037 253.554 201.037 253.236V252.162C200.987 252.222 200.878 252.276 200.709 252.326C200.543 252.372 200.351 252.414 200.132 252.45C199.916 252.483 199.706 252.513 199.501 252.54C199.298 252.563 199.134 252.583 199.008 252.599C198.703 252.639 198.418 252.704 198.153 252.793C197.891 252.879 197.679 253.01 197.517 253.186C197.358 253.358 197.278 253.594 197.278 253.892C197.278 254.3 197.429 254.608 197.731 254.817C198.036 255.022 198.422 255.125 198.889 255.125ZM207.687 248.364V249.358H203.729V248.364H207.687ZM204.883 246.534H206.056V253.812C206.056 254.144 206.104 254.393 206.2 254.558C206.299 254.721 206.425 254.83 206.578 254.886C206.734 254.939 206.898 254.966 207.07 254.966C207.199 254.966 207.305 254.959 207.388 254.946C207.471 254.929 207.537 254.916 207.587 254.906L207.826 255.96C207.746 255.99 207.635 256.02 207.493 256.05C207.35 256.083 207.17 256.099 206.951 256.099C206.619 256.099 206.295 256.028 205.976 255.886C205.661 255.743 205.4 255.526 205.191 255.234C204.985 254.943 204.883 254.575 204.883 254.131V246.534ZM212.585 256.159C211.849 256.159 211.215 255.997 210.681 255.672C210.151 255.344 209.741 254.886 209.453 254.3C209.168 253.71 209.025 253.024 209.025 252.241C209.025 251.459 209.168 250.77 209.453 250.173C209.741 249.573 210.142 249.106 210.656 248.771C211.173 248.433 211.776 248.264 212.466 248.264C212.864 248.264 213.256 248.33 213.644 248.463C214.032 248.596 214.385 248.811 214.703 249.109C215.021 249.404 215.275 249.795 215.464 250.283C215.653 250.77 215.747 251.37 215.747 252.082V252.58H209.861V251.565H214.554C214.554 251.134 214.468 250.75 214.295 250.412C214.126 250.074 213.884 249.807 213.57 249.612C213.258 249.416 212.89 249.318 212.466 249.318C211.998 249.318 211.594 249.434 211.253 249.666C210.915 249.895 210.655 250.193 210.472 250.561C210.29 250.929 210.199 251.323 210.199 251.744V252.42C210.199 252.997 210.298 253.486 210.497 253.887C210.699 254.285 210.979 254.588 211.337 254.797C211.695 255.002 212.111 255.105 212.585 255.105C212.893 255.105 213.172 255.062 213.42 254.976C213.672 254.886 213.889 254.754 214.072 254.578C214.254 254.399 214.395 254.177 214.494 253.912L215.628 254.23C215.508 254.615 215.308 254.953 215.026 255.244C214.744 255.533 214.396 255.758 213.982 255.92C213.568 256.08 213.102 256.159 212.585 256.159ZM222.955 250.074L221.901 250.372C221.835 250.196 221.737 250.026 221.608 249.86C221.482 249.691 221.309 249.552 221.091 249.442C220.872 249.333 220.592 249.278 220.25 249.278C219.783 249.278 219.394 249.386 219.082 249.602C218.774 249.814 218.62 250.084 218.62 250.412C218.62 250.704 218.726 250.934 218.938 251.103C219.15 251.272 219.481 251.413 219.932 251.526L221.066 251.804C221.749 251.97 222.257 252.223 222.592 252.565C222.927 252.903 223.094 253.339 223.094 253.872C223.094 254.31 222.968 254.701 222.716 255.045C222.468 255.39 222.12 255.662 221.672 255.861C221.225 256.06 220.704 256.159 220.111 256.159C219.332 256.159 218.688 255.99 218.177 255.652C217.667 255.314 217.344 254.82 217.208 254.17L218.321 253.892C218.428 254.303 218.628 254.611 218.923 254.817C219.221 255.022 219.611 255.125 220.091 255.125C220.638 255.125 221.072 255.009 221.394 254.777C221.719 254.542 221.881 254.26 221.881 253.932C221.881 253.667 221.788 253.445 221.603 253.266C221.417 253.083 221.132 252.947 220.748 252.858L219.475 252.56C218.776 252.394 218.262 252.137 217.934 251.789C217.609 251.438 217.446 250.999 217.446 250.472C217.446 250.041 217.567 249.66 217.809 249.328C218.055 248.997 218.388 248.737 218.809 248.548C219.233 248.359 219.713 248.264 220.25 248.264C221.006 248.264 221.599 248.43 222.03 248.761C222.464 249.093 222.773 249.53 222.955 250.074ZM228.195 248.364V249.358H224.238V248.364H228.195ZM225.391 246.534H226.565V253.812C226.565 254.144 226.613 254.393 226.709 254.558C226.808 254.721 226.934 254.83 227.087 254.886C227.242 254.939 227.407 254.966 227.579 254.966C227.708 254.966 227.814 254.959 227.897 254.946C227.98 254.929 228.046 254.916 228.096 254.906L228.335 255.96C228.255 255.99 228.144 256.02 228.001 256.05C227.859 256.083 227.678 256.099 227.46 256.099C227.128 256.099 226.803 256.028 226.485 255.886C226.17 255.743 225.908 255.526 225.7 255.234C225.494 254.943 225.391 254.575 225.391 254.131V246.534ZM236.173 256.179C235.689 256.179 235.25 256.088 234.855 255.906C234.461 255.72 234.148 255.453 233.916 255.105C233.684 254.754 233.568 254.33 233.568 253.832C233.568 253.395 233.654 253.04 233.826 252.768C233.999 252.493 234.229 252.278 234.517 252.122C234.806 251.966 235.124 251.85 235.472 251.774C235.823 251.695 236.176 251.632 236.531 251.585C236.995 251.526 237.371 251.481 237.659 251.451C237.951 251.418 238.163 251.363 238.296 251.287C238.432 251.211 238.5 251.078 238.5 250.889V250.849C238.5 250.359 238.365 249.978 238.097 249.706C237.832 249.434 237.429 249.298 236.889 249.298C236.329 249.298 235.89 249.421 235.571 249.666C235.253 249.911 235.029 250.173 234.9 250.452L233.787 250.054C233.985 249.59 234.251 249.229 234.582 248.97C234.917 248.708 235.281 248.526 235.676 248.423C236.073 248.317 236.465 248.264 236.849 248.264C237.094 248.264 237.376 248.294 237.694 248.354C238.016 248.41 238.326 248.528 238.624 248.707C238.926 248.886 239.176 249.156 239.375 249.517C239.573 249.878 239.673 250.362 239.673 250.969V256H238.5V254.966H238.44C238.36 255.132 238.228 255.309 238.042 255.498C237.857 255.687 237.61 255.848 237.301 255.98C236.993 256.113 236.617 256.179 236.173 256.179ZM236.352 255.125C236.816 255.125 237.207 255.034 237.525 254.852C237.847 254.669 238.089 254.434 238.251 254.146C238.417 253.857 238.5 253.554 238.5 253.236V252.162C238.45 252.222 238.341 252.276 238.172 252.326C238.006 252.372 237.814 252.414 237.595 252.45C237.379 252.483 237.169 252.513 236.963 252.54C236.761 252.563 236.597 252.583 236.471 252.599C236.166 252.639 235.881 252.704 235.616 252.793C235.354 252.879 235.142 253.01 234.98 253.186C234.821 253.358 234.741 253.594 234.741 253.892C234.741 254.3 234.892 254.608 235.194 254.817C235.498 255.022 235.885 255.125 236.352 255.125ZM241.828 256V248.364H242.962V249.517H243.042C243.181 249.139 243.433 248.833 243.797 248.597C244.162 248.362 244.573 248.244 245.03 248.244C245.116 248.244 245.224 248.246 245.353 248.249C245.483 248.253 245.58 248.258 245.647 248.264V249.457C245.607 249.447 245.516 249.433 245.373 249.413C245.234 249.389 245.086 249.378 244.931 249.378C244.56 249.378 244.228 249.456 243.936 249.612C243.648 249.764 243.419 249.976 243.25 250.248C243.085 250.516 243.002 250.823 243.002 251.168V256H241.828ZM247.051 256V248.364H248.185V249.517H248.264C248.404 249.139 248.656 248.833 249.02 248.597C249.385 248.362 249.796 248.244 250.253 248.244C250.339 248.244 250.447 248.246 250.576 248.249C250.706 248.253 250.803 248.258 250.87 248.264V249.457C250.83 249.447 250.739 249.433 250.596 249.413C250.457 249.389 250.309 249.378 250.154 249.378C249.782 249.378 249.451 249.456 249.159 249.612C248.871 249.764 248.642 249.976 248.473 250.248C248.308 250.516 248.225 250.823 248.225 251.168V256H247.051ZM252.274 256V248.364H253.448V256H252.274ZM252.871 247.091C252.642 247.091 252.445 247.013 252.279 246.857C252.117 246.701 252.036 246.514 252.036 246.295C252.036 246.077 252.117 245.889 252.279 245.734C252.445 245.578 252.642 245.5 252.871 245.5C253.1 245.5 253.295 245.578 253.458 245.734C253.623 245.889 253.706 246.077 253.706 246.295C253.706 246.514 253.623 246.701 253.458 246.857C253.295 247.013 253.1 247.091 252.871 247.091ZM261.855 248.364L259.031 256H257.838L255.014 248.364H256.287L258.395 254.449H258.474L260.582 248.364H261.855ZM265.432 256.179C264.948 256.179 264.509 256.088 264.115 255.906C263.72 255.72 263.407 255.453 263.175 255.105C262.943 254.754 262.827 254.33 262.827 253.832C262.827 253.395 262.913 253.04 263.086 252.768C263.258 252.493 263.488 252.278 263.777 252.122C264.065 251.966 264.383 251.85 264.731 251.774C265.083 251.695 265.436 251.632 265.79 251.585C266.254 251.526 266.631 251.481 266.919 251.451C267.211 251.418 267.423 251.363 267.555 251.287C267.691 251.211 267.759 251.078 267.759 250.889V250.849C267.759 250.359 267.625 249.978 267.356 249.706C267.091 249.434 266.689 249.298 266.148 249.298C265.588 249.298 265.149 249.421 264.831 249.666C264.513 249.911 264.289 250.173 264.16 250.452L263.046 250.054C263.245 249.59 263.51 249.229 263.841 248.97C264.176 248.708 264.541 248.526 264.935 248.423C265.333 248.317 265.724 248.264 266.109 248.264C266.354 248.264 266.636 248.294 266.954 248.354C267.275 248.41 267.585 248.528 267.883 248.707C268.185 248.886 268.435 249.156 268.634 249.517C268.833 249.878 268.932 250.362 268.932 250.969V256H267.759V254.966H267.699C267.62 255.132 267.487 255.309 267.302 255.498C267.116 255.687 266.869 255.848 266.561 255.98C266.253 256.113 265.877 256.179 265.432 256.179ZM265.611 255.125C266.075 255.125 266.466 255.034 266.785 254.852C267.106 254.669 267.348 254.434 267.511 254.146C267.676 253.857 267.759 253.554 267.759 253.236V252.162C267.709 252.222 267.6 252.276 267.431 252.326C267.265 252.372 267.073 252.414 266.854 252.45C266.639 252.483 266.428 252.513 266.223 252.54C266.021 252.563 265.857 252.583 265.731 252.599C265.426 252.639 265.141 252.704 264.876 252.793C264.614 252.879 264.402 253.01 264.239 253.186C264.08 253.358 264.001 253.594 264.001 253.892C264.001 254.3 264.151 254.608 264.453 254.817C264.758 255.022 265.144 255.125 265.611 255.125ZM272.261 245.818V256H271.088V245.818H272.261ZM278.535 256V245.818H279.708V249.577H279.807C279.894 249.444 280.013 249.275 280.165 249.07C280.321 248.861 280.543 248.675 280.832 248.513C281.123 248.347 281.518 248.264 282.015 248.264C282.658 248.264 283.225 248.425 283.715 248.746C284.206 249.068 284.588 249.524 284.864 250.114C285.139 250.704 285.276 251.4 285.276 252.202C285.276 253.01 285.139 253.711 284.864 254.305C284.588 254.895 284.207 255.352 283.72 255.677C283.233 255.998 282.671 256.159 282.035 256.159C281.544 256.159 281.151 256.078 280.856 255.915C280.562 255.75 280.334 255.562 280.175 255.354C280.016 255.142 279.894 254.966 279.807 254.827H279.668V256H278.535ZM279.688 252.182C279.688 252.759 279.773 253.267 279.942 253.708C280.111 254.146 280.358 254.489 280.682 254.737C281.007 254.982 281.405 255.105 281.876 255.105C282.366 255.105 282.776 254.976 283.104 254.717C283.435 254.455 283.684 254.104 283.849 253.663C284.018 253.219 284.103 252.725 284.103 252.182C284.103 251.645 284.02 251.161 283.854 250.73C283.692 250.296 283.445 249.953 283.114 249.701C282.785 249.446 282.373 249.318 281.876 249.318C281.398 249.318 280.997 249.439 280.673 249.681C280.348 249.92 280.102 250.254 279.937 250.685C279.771 251.113 279.688 251.612 279.688 252.182ZM287.567 258.864C287.368 258.864 287.191 258.847 287.035 258.814C286.879 258.784 286.772 258.754 286.712 258.724L287.01 257.69C287.295 257.763 287.547 257.79 287.766 257.77C287.985 257.75 288.179 257.652 288.348 257.477C288.52 257.304 288.678 257.024 288.82 256.636L289.039 256.04L286.215 248.364H287.488L289.596 254.449H289.675L291.783 248.364H293.056L289.814 257.114C289.669 257.508 289.488 257.835 289.272 258.093C289.057 258.355 288.807 258.549 288.522 258.675C288.24 258.801 287.922 258.864 287.567 258.864ZM302.13 245.818V256H300.897V247.111H300.837L298.351 248.761V247.509L300.897 245.818H302.13ZM305.072 256V255.105L308.433 251.426C308.827 250.995 309.152 250.621 309.407 250.303C309.662 249.981 309.851 249.679 309.974 249.398C310.1 249.113 310.163 248.814 310.163 248.503C310.163 248.145 310.077 247.835 309.904 247.573C309.735 247.311 309.503 247.109 309.208 246.967C308.913 246.824 308.582 246.753 308.214 246.753C307.823 246.753 307.481 246.834 307.19 246.996C306.901 247.156 306.678 247.379 306.519 247.668C306.363 247.956 306.285 248.294 306.285 248.682H305.112C305.112 248.085 305.249 247.562 305.524 247.111C305.799 246.66 306.174 246.309 306.648 246.057C307.125 245.805 307.66 245.679 308.254 245.679C308.85 245.679 309.379 245.805 309.84 246.057C310.3 246.309 310.662 246.648 310.923 247.076C311.185 247.504 311.316 247.979 311.316 248.503C311.316 248.877 311.248 249.244 311.112 249.602C310.98 249.956 310.748 250.352 310.416 250.79C310.088 251.224 309.633 251.754 309.049 252.381L306.762 254.827V254.906H311.495V256H305.072ZM314.437 254.697C314.192 254.697 313.982 254.61 313.806 254.434C313.63 254.258 313.543 254.048 313.543 253.803C313.543 253.557 313.63 253.347 313.806 253.171C313.982 252.996 314.192 252.908 314.437 252.908C314.683 252.908 314.893 252.996 315.069 253.171C315.245 253.347 315.332 253.557 315.332 253.803C315.332 253.965 315.291 254.114 315.208 254.25C315.129 254.386 315.021 254.495 314.885 254.578C314.752 254.658 314.603 254.697 314.437 254.697ZM314.437 249.547C314.192 249.547 313.982 249.459 313.806 249.283C313.63 249.108 313.543 248.897 313.543 248.652C313.543 248.407 313.63 248.196 313.806 248.021C313.982 247.845 314.192 247.757 314.437 247.757C314.683 247.757 314.893 247.845 315.069 248.021C315.245 248.196 315.332 248.407 315.332 248.652C315.332 248.814 315.291 248.964 315.208 249.099C315.129 249.235 315.021 249.345 314.885 249.428C314.752 249.507 314.603 249.547 314.437 249.547ZM320.614 256.139C320.03 256.139 319.505 256.023 319.038 255.791C318.57 255.559 318.196 255.241 317.914 254.837C317.632 254.432 317.478 253.972 317.452 253.455H318.645C318.691 253.915 318.9 254.296 319.271 254.598C319.646 254.896 320.093 255.045 320.614 255.045C321.031 255.045 321.403 254.948 321.727 254.752C322.056 254.557 322.312 254.288 322.498 253.947C322.687 253.602 322.781 253.213 322.781 252.778C322.781 252.334 322.684 251.938 322.488 251.59C322.296 251.239 322.031 250.962 321.693 250.76C321.355 250.558 320.968 250.455 320.534 250.452C320.223 250.448 319.903 250.496 319.575 250.596C319.247 250.692 318.976 250.816 318.764 250.969L317.611 250.83L318.227 245.818H323.517V246.912H319.262L318.904 249.915H318.963C319.172 249.749 319.434 249.612 319.749 249.502C320.064 249.393 320.392 249.338 320.733 249.338C321.356 249.338 321.911 249.487 322.399 249.786C322.889 250.08 323.274 250.485 323.552 250.999C323.834 251.512 323.975 252.099 323.975 252.759C323.975 253.408 323.829 253.988 323.537 254.499C323.249 255.006 322.851 255.407 322.344 255.702C321.837 255.993 321.26 256.139 320.614 256.139ZM329.225 256.139C328.542 256.139 327.939 256.018 327.415 255.776C326.895 255.531 326.489 255.195 326.197 254.767C325.906 254.336 325.761 253.846 325.765 253.295C325.761 252.865 325.846 252.467 326.018 252.102C326.191 251.734 326.426 251.428 326.724 251.183C327.026 250.934 327.362 250.777 327.733 250.71V250.651C327.246 250.525 326.858 250.251 326.57 249.83C326.282 249.406 326.139 248.924 326.143 248.384C326.139 247.866 326.27 247.404 326.535 246.996C326.8 246.589 327.165 246.267 327.629 246.032C328.096 245.797 328.628 245.679 329.225 245.679C329.815 245.679 330.342 245.797 330.806 246.032C331.27 246.267 331.634 246.589 331.9 246.996C332.168 247.404 332.304 247.866 332.307 248.384C332.304 248.924 332.156 249.406 331.865 249.83C331.576 250.251 331.194 250.525 330.716 250.651V250.71C331.084 250.777 331.416 250.934 331.711 251.183C332.006 251.428 332.241 251.734 332.417 252.102C332.592 252.467 332.682 252.865 332.685 253.295C332.682 253.846 332.533 254.336 332.238 254.767C331.946 255.195 331.54 255.531 331.02 255.776C330.503 256.018 329.904 256.139 329.225 256.139ZM329.225 255.045C329.686 255.045 330.083 254.971 330.418 254.822C330.753 254.673 331.011 254.462 331.194 254.19C331.376 253.919 331.469 253.6 331.472 253.236C331.469 252.851 331.369 252.512 331.174 252.217C330.978 251.922 330.711 251.69 330.373 251.521C330.039 251.352 329.656 251.267 329.225 251.267C328.791 251.267 328.403 251.352 328.062 251.521C327.723 251.69 327.457 251.922 327.261 252.217C327.069 252.512 326.974 252.851 326.978 253.236C326.974 253.6 327.062 253.919 327.241 254.19C327.424 254.462 327.684 254.673 328.022 254.822C328.36 254.971 328.761 255.045 329.225 255.045ZM329.225 250.213C329.589 250.213 329.913 250.14 330.194 249.994C330.479 249.848 330.703 249.645 330.866 249.383C331.028 249.121 331.111 248.814 331.114 248.463C331.111 248.118 331.03 247.818 330.87 247.563C330.711 247.305 330.491 247.106 330.209 246.967C329.928 246.824 329.599 246.753 329.225 246.753C328.844 246.753 328.511 246.824 328.226 246.967C327.941 247.106 327.72 247.305 327.564 247.563C327.409 247.818 327.332 248.118 327.336 248.463C327.332 248.814 327.41 249.121 327.569 249.383C327.732 249.645 327.955 249.848 328.241 249.994C328.526 250.14 328.854 250.213 329.225 250.213ZM338.735 256V245.818H342.175C342.974 245.818 343.627 245.962 344.134 246.251C344.645 246.536 345.022 246.922 345.268 247.409C345.513 247.896 345.636 248.44 345.636 249.04C345.636 249.64 345.513 250.185 345.268 250.675C345.026 251.166 344.651 251.557 344.144 251.849C343.637 252.137 342.987 252.281 342.195 252.281H339.729V251.188H342.155C342.702 251.188 343.141 251.093 343.473 250.904C343.804 250.715 344.045 250.46 344.194 250.138C344.346 249.814 344.422 249.447 344.422 249.04C344.422 248.632 344.346 248.268 344.194 247.946C344.045 247.625 343.803 247.373 343.468 247.19C343.133 247.005 342.689 246.912 342.136 246.912H339.968V256H338.735ZM347.636 245.818H349.107L352.568 254.27H352.687L356.147 245.818H357.619V256H356.465V248.264H356.366L353.184 256H352.07L348.889 248.264H348.789V256H347.636V245.818Z" fill="#828282"/>
<g filter="url(#filter1_d_160_745)">
<rect x="208.5" y="283" width="130" height="32" rx="16" fill="white" shape-rendering="crispEdges"/>
<rect x="208" y="282.5" width="131" height="33" rx="16.5" stroke="#E4E7EC" shape-rendering="crispEdges"/>
<path d="M231.038 296.617C230.991 296.183 230.796 295.845 230.451 295.603C230.11 295.361 229.665 295.24 229.119 295.24C228.734 295.24 228.404 295.298 228.129 295.414C227.854 295.53 227.644 295.687 227.498 295.886C227.352 296.085 227.277 296.312 227.274 296.567C227.274 296.78 227.322 296.964 227.418 297.119C227.518 297.275 227.652 297.408 227.821 297.517C227.99 297.623 228.177 297.713 228.383 297.786C228.588 297.858 228.795 297.92 229.004 297.969L229.959 298.208C230.343 298.298 230.713 298.419 231.067 298.571C231.425 298.723 231.745 298.916 232.027 299.148C232.312 299.38 232.537 299.66 232.703 299.988C232.869 300.316 232.952 300.701 232.952 301.141C232.952 301.738 232.799 302.263 232.494 302.717C232.189 303.168 231.749 303.521 231.172 303.776C230.598 304.028 229.904 304.154 229.089 304.154C228.297 304.154 227.609 304.031 227.026 303.786C226.446 303.541 225.991 303.183 225.663 302.712C225.339 302.242 225.163 301.668 225.136 300.992H226.951C226.978 301.347 227.087 301.642 227.279 301.877C227.471 302.112 227.722 302.288 228.03 302.404C228.341 302.52 228.689 302.578 229.074 302.578C229.475 302.578 229.826 302.518 230.128 302.399C230.433 302.277 230.671 302.107 230.844 301.892C231.016 301.673 231.104 301.418 231.107 301.126C231.104 300.861 231.026 300.643 230.874 300.47C230.721 300.295 230.507 300.149 230.232 300.033C229.96 299.913 229.642 299.807 229.278 299.714L228.119 299.416C227.281 299.201 226.618 298.874 226.131 298.437C225.647 297.996 225.405 297.411 225.405 296.682C225.405 296.082 225.567 295.557 225.892 295.106C226.22 294.655 226.666 294.305 227.229 294.057C227.793 293.805 228.431 293.679 229.143 293.679C229.866 293.679 230.499 293.805 231.043 294.057C231.589 294.305 232.019 294.652 232.33 295.096C232.642 295.537 232.803 296.044 232.812 296.617H231.038ZM237.997 304.149C237.232 304.149 236.57 303.99 236.014 303.672C235.46 303.35 235.034 302.896 234.736 302.31C234.438 301.72 234.288 301.025 234.288 300.227C234.288 299.441 234.438 298.752 234.736 298.158C235.037 297.562 235.458 297.098 235.999 296.766C236.539 296.432 237.174 296.264 237.903 296.264C238.373 296.264 238.818 296.34 239.235 296.493C239.656 296.642 240.027 296.874 240.349 297.189C240.674 297.504 240.929 297.905 241.114 298.392C241.3 298.876 241.393 299.453 241.393 300.122V300.674H235.134V299.461H239.668C239.664 299.116 239.59 298.81 239.444 298.541C239.298 298.269 239.094 298.056 238.832 297.9C238.574 297.744 238.272 297.666 237.928 297.666C237.56 297.666 237.237 297.756 236.958 297.935C236.68 298.11 236.463 298.342 236.307 298.631C236.154 298.916 236.077 299.229 236.073 299.57V300.629C236.073 301.073 236.154 301.455 236.317 301.773C236.479 302.088 236.706 302.33 236.998 302.499C237.29 302.664 237.631 302.747 238.022 302.747C238.284 302.747 238.521 302.711 238.733 302.638C238.945 302.562 239.129 302.451 239.285 302.305C239.441 302.159 239.558 301.978 239.638 301.763L241.318 301.952C241.212 302.396 241.01 302.784 240.712 303.115C240.417 303.443 240.039 303.698 239.578 303.881C239.117 304.06 238.59 304.149 237.997 304.149ZM244.815 299.526V304H243.015V296.364H244.736V297.661H244.825C245.001 297.234 245.281 296.894 245.665 296.642C246.053 296.39 246.532 296.264 247.102 296.264C247.629 296.264 248.088 296.377 248.479 296.602C248.874 296.828 249.178 297.154 249.394 297.582C249.613 298.009 249.72 298.528 249.717 299.138V304H247.917V299.416C247.917 298.906 247.785 298.506 247.52 298.218C247.258 297.93 246.895 297.786 246.431 297.786C246.116 297.786 245.836 297.855 245.591 297.994C245.349 298.13 245.158 298.327 245.019 298.586C244.883 298.844 244.815 299.158 244.815 299.526ZM254.48 304.134C253.88 304.134 253.344 303.98 252.87 303.672C252.396 303.364 252.021 302.916 251.746 302.33C251.471 301.743 251.333 301.03 251.333 300.192C251.333 299.343 251.473 298.627 251.751 298.044C252.033 297.457 252.412 297.015 252.889 296.717C253.367 296.415 253.899 296.264 254.485 296.264C254.933 296.264 255.301 296.34 255.589 296.493C255.877 296.642 256.106 296.823 256.275 297.035C256.444 297.244 256.575 297.441 256.668 297.626H256.742V293.818H258.547V304H256.777V302.797H256.668C256.575 302.982 256.441 303.18 256.265 303.388C256.09 303.594 255.858 303.77 255.569 303.915C255.281 304.061 254.918 304.134 254.48 304.134ZM254.983 302.658C255.364 302.658 255.688 302.555 255.957 302.349C256.225 302.141 256.429 301.851 256.568 301.479C256.708 301.108 256.777 300.676 256.777 300.182C256.777 299.688 256.708 299.259 256.568 298.894C256.433 298.53 256.23 298.246 255.962 298.044C255.697 297.842 255.37 297.741 254.983 297.741C254.581 297.741 254.247 297.845 253.978 298.054C253.71 298.263 253.508 298.551 253.372 298.919C253.236 299.287 253.168 299.708 253.168 300.182C253.168 300.659 253.236 301.085 253.372 301.46C253.511 301.831 253.715 302.124 253.983 302.339C254.255 302.552 254.588 302.658 254.983 302.658ZM264.138 306.864V296.364H265.907V297.626H266.012C266.105 297.441 266.236 297.244 266.405 297.035C266.574 296.823 266.802 296.642 267.091 296.493C267.379 296.34 267.747 296.264 268.194 296.264C268.784 296.264 269.316 296.415 269.79 296.717C270.268 297.015 270.645 297.457 270.924 298.044C271.206 298.627 271.346 299.343 271.346 300.192C271.346 301.03 271.209 301.743 270.934 302.33C270.659 302.916 270.284 303.364 269.81 303.672C269.336 303.98 268.799 304.134 268.199 304.134C267.762 304.134 267.399 304.061 267.111 303.915C266.822 303.77 266.59 303.594 266.415 303.388C266.242 303.18 266.108 302.982 266.012 302.797H265.937V306.864H264.138ZM265.903 300.182C265.903 300.676 265.972 301.108 266.111 301.479C266.254 301.851 266.458 302.141 266.723 302.349C266.991 302.555 267.316 302.658 267.697 302.658C268.095 302.658 268.428 302.552 268.697 302.339C268.965 302.124 269.167 301.831 269.303 301.46C269.442 301.085 269.512 300.659 269.512 300.182C269.512 299.708 269.444 299.287 269.308 298.919C269.172 298.551 268.97 298.263 268.702 298.054C268.433 297.845 268.098 297.741 267.697 297.741C267.313 297.741 266.986 297.842 266.718 298.044C266.449 298.246 266.246 298.53 266.106 298.894C265.97 299.259 265.903 299.688 265.903 300.182ZM275.185 304.154C274.701 304.154 274.265 304.068 273.878 303.896C273.493 303.72 273.188 303.461 272.963 303.12C272.741 302.779 272.63 302.358 272.63 301.857C272.63 301.426 272.709 301.07 272.868 300.788C273.027 300.507 273.244 300.281 273.52 300.112C273.795 299.943 274.105 299.816 274.449 299.729C274.797 299.64 275.157 299.575 275.528 299.536C275.976 299.489 276.338 299.448 276.617 299.411C276.895 299.371 277.097 299.312 277.223 299.232C277.353 299.149 277.417 299.022 277.417 298.849V298.82C277.417 298.445 277.306 298.155 277.084 297.95C276.862 297.744 276.542 297.641 276.125 297.641C275.684 297.641 275.334 297.737 275.076 297.93C274.82 298.122 274.648 298.349 274.559 298.611L272.878 298.372C273.011 297.908 273.23 297.52 273.534 297.209C273.839 296.894 274.212 296.659 274.653 296.503C275.094 296.344 275.581 296.264 276.115 296.264C276.483 296.264 276.849 296.307 277.213 296.393C277.578 296.48 277.911 296.622 278.213 296.821C278.514 297.017 278.756 297.283 278.939 297.621C279.124 297.96 279.217 298.382 279.217 298.889V304H277.487V302.951H277.427C277.318 303.163 277.164 303.362 276.965 303.548C276.769 303.73 276.522 303.877 276.224 303.99C275.929 304.099 275.583 304.154 275.185 304.154ZM275.652 302.832C276.014 302.832 276.327 302.76 276.592 302.618C276.857 302.472 277.061 302.28 277.204 302.041C277.349 301.803 277.422 301.542 277.422 301.261V300.361C277.366 300.407 277.27 300.45 277.134 300.49C277.001 300.53 276.852 300.565 276.686 300.594C276.521 300.624 276.357 300.651 276.194 300.674C276.032 300.697 275.891 300.717 275.772 300.734C275.503 300.77 275.263 300.83 275.051 300.913C274.839 300.996 274.671 301.112 274.549 301.261C274.426 301.406 274.365 301.595 274.365 301.827C274.365 302.159 274.486 302.409 274.728 302.578C274.97 302.747 275.278 302.832 275.652 302.832ZM284.458 304.149C283.695 304.149 283.041 303.982 282.494 303.647C281.95 303.312 281.531 302.85 281.236 302.26C280.944 301.667 280.799 300.984 280.799 300.212C280.799 299.436 280.948 298.752 281.246 298.158C281.544 297.562 281.965 297.098 282.509 296.766C283.056 296.432 283.702 296.264 284.448 296.264C285.067 296.264 285.616 296.379 286.093 296.607C286.574 296.833 286.957 297.152 287.242 297.567C287.527 297.978 287.689 298.458 287.729 299.009H286.009C285.939 298.641 285.773 298.334 285.512 298.089C285.253 297.84 284.907 297.716 284.473 297.716C284.105 297.716 283.781 297.815 283.503 298.014C283.225 298.21 283.008 298.491 282.852 298.859C282.699 299.227 282.623 299.668 282.623 300.182C282.623 300.702 282.699 301.15 282.852 301.524C283.004 301.895 283.218 302.182 283.493 302.384C283.772 302.583 284.098 302.683 284.473 302.683C284.738 302.683 284.975 302.633 285.183 302.533C285.396 302.431 285.573 302.283 285.715 302.091C285.858 301.899 285.956 301.665 286.009 301.39H287.729C287.686 301.93 287.527 302.409 287.252 302.827C286.977 303.241 286.602 303.566 286.128 303.801C285.654 304.033 285.097 304.149 284.458 304.149ZM290.947 301.604L290.942 299.431H291.231L293.975 296.364H296.078L292.702 300.122H292.329L290.947 301.604ZM289.307 304V293.818H291.106V304H289.307ZM294.099 304L291.614 300.525L292.827 299.257L296.252 304H294.099ZM299.575 304.154C299.091 304.154 298.655 304.068 298.267 303.896C297.883 303.72 297.578 303.461 297.353 303.12C297.131 302.779 297.019 302.358 297.019 301.857C297.019 301.426 297.099 301.07 297.258 300.788C297.417 300.507 297.634 300.281 297.909 300.112C298.185 299.943 298.494 299.816 298.839 299.729C299.187 299.64 299.547 299.575 299.918 299.536C300.365 299.489 300.728 299.448 301.007 299.411C301.285 299.371 301.487 299.312 301.613 299.232C301.743 299.149 301.807 299.022 301.807 298.849V298.82C301.807 298.445 301.696 298.155 301.474 297.95C301.252 297.744 300.932 297.641 300.515 297.641C300.074 297.641 299.724 297.737 299.466 297.93C299.21 298.122 299.038 298.349 298.948 298.611L297.268 298.372C297.401 297.908 297.619 297.52 297.924 297.209C298.229 296.894 298.602 296.659 299.043 296.503C299.484 296.344 299.971 296.264 300.505 296.264C300.872 296.264 301.239 296.307 301.603 296.393C301.968 296.48 302.301 296.622 302.603 296.821C302.904 297.017 303.146 297.283 303.328 297.621C303.514 297.96 303.607 298.382 303.607 298.889V304H301.877V302.951H301.817C301.708 303.163 301.554 303.362 301.355 303.548C301.159 303.73 300.912 303.877 300.614 303.99C300.319 304.099 299.973 304.154 299.575 304.154ZM300.042 302.832C300.403 302.832 300.717 302.76 300.982 302.618C301.247 302.472 301.451 302.28 301.593 302.041C301.739 301.803 301.812 301.542 301.812 301.261V300.361C301.756 300.407 301.66 300.45 301.524 300.49C301.391 300.53 301.242 300.565 301.076 300.594C300.911 300.624 300.747 300.651 300.584 300.674C300.422 300.697 300.281 300.717 300.162 300.734C299.893 300.77 299.653 300.83 299.441 300.913C299.229 300.996 299.061 301.112 298.939 301.261C298.816 301.406 298.755 301.595 298.755 301.827C298.755 302.159 298.876 302.409 299.118 302.578C299.359 302.747 299.668 302.832 300.042 302.832ZM308.838 307.023C308.191 307.023 307.636 306.935 307.172 306.759C306.708 306.587 306.335 306.355 306.053 306.063C305.772 305.772 305.576 305.448 305.467 305.094L307.088 304.701C307.16 304.85 307.267 304.998 307.406 305.143C307.545 305.293 307.732 305.415 307.968 305.511C308.206 305.611 308.506 305.661 308.867 305.661C309.378 305.661 309.8 305.536 310.135 305.288C310.47 305.042 310.637 304.638 310.637 304.075V302.628H310.548C310.455 302.813 310.319 303.004 310.14 303.2C309.964 303.395 309.731 303.559 309.439 303.692C309.151 303.824 308.788 303.891 308.35 303.891C307.764 303.891 307.232 303.753 306.754 303.478C306.28 303.2 305.903 302.785 305.621 302.235C305.343 301.682 305.203 300.989 305.203 300.157C305.203 299.318 305.343 298.611 305.621 298.034C305.903 297.454 306.282 297.015 306.759 296.717C307.237 296.415 307.769 296.264 308.355 296.264C308.803 296.264 309.171 296.34 309.459 296.493C309.751 296.642 309.983 296.823 310.155 297.035C310.327 297.244 310.458 297.441 310.548 297.626H310.647V296.364H312.422V304.124C312.422 304.777 312.266 305.317 311.955 305.745C311.643 306.173 311.217 306.492 310.677 306.705C310.137 306.917 309.524 307.023 308.838 307.023ZM308.852 302.479C309.234 302.479 309.558 302.386 309.827 302.2C310.095 302.015 310.299 301.748 310.438 301.4C310.578 301.052 310.647 300.634 310.647 300.147C310.647 299.666 310.578 299.246 310.438 298.884C310.302 298.523 310.1 298.243 309.832 298.044C309.567 297.842 309.24 297.741 308.852 297.741C308.451 297.741 308.117 297.845 307.848 298.054C307.58 298.263 307.378 298.549 307.242 298.914C307.106 299.275 307.038 299.686 307.038 300.147C307.038 300.614 307.106 301.024 307.242 301.375C307.381 301.723 307.585 301.995 307.853 302.19C308.125 302.383 308.458 302.479 308.852 302.479ZM317.747 304.149C316.982 304.149 316.32 303.99 315.764 303.672C315.21 303.35 314.784 302.896 314.486 302.31C314.188 301.72 314.038 301.025 314.038 300.227C314.038 299.441 314.188 298.752 314.486 298.158C314.787 297.562 315.208 297.098 315.749 296.766C316.289 296.432 316.924 296.264 317.653 296.264C318.123 296.264 318.568 296.34 318.985 296.493C319.406 296.642 319.777 296.874 320.099 297.189C320.424 297.504 320.679 297.905 320.864 298.392C321.05 298.876 321.143 299.453 321.143 300.122V300.674H314.884V299.461H319.418C319.414 299.116 319.34 298.81 319.194 298.541C319.048 298.269 318.844 298.056 318.582 297.9C318.324 297.744 318.022 297.666 317.678 297.666C317.31 297.666 316.987 297.756 316.708 297.935C316.43 298.11 316.213 298.342 316.057 298.631C315.904 298.916 315.827 299.229 315.823 299.57V300.629C315.823 301.073 315.904 301.455 316.067 301.773C316.229 302.088 316.456 302.33 316.748 302.499C317.04 302.664 317.381 302.747 317.772 302.747C318.034 302.747 318.271 302.711 318.483 302.638C318.695 302.562 318.879 302.451 319.035 302.305C319.191 302.159 319.308 301.978 319.388 301.763L321.068 301.952C320.962 302.396 320.76 302.784 320.462 303.115C320.167 303.443 319.789 303.698 319.328 303.881C318.867 304.06 318.34 304.149 317.747 304.149Z" fill="#344054"/>
</g>
</g>
</g>
<defs>
<filter id="filter0_dd_160_745" x="112" y="33" width="323" height="351" filterUnits="userSpaceOnUse" color-interpolation-filters="sRGB">
<feFlood flood-opacity="0" result="BackgroundImageFix"/>
<feColorMatrix in="SourceAlpha" type="matrix" values="0 0 0 0 0 0 0 0 0 0 0 0 0 0 0 0 0 0 127 0" result="hardAlpha"/>
<feMorphology radius="1" operator="dilate" in="SourceAlpha" result="effect1_dropShadow_160_745"/>
<feOffset/>
<feComposite in2="hardAlpha" operator="out"/>
<feColorMatrix type="matrix" values="0 0 0 0 0 0 0 0 0 0 0 0 0 0 0 0 0 0 0.02 0"/>
<feBlend mode="normal" in2="BackgroundImageFix" result="effect1_dropShadow_160_745"/>
<feColorMatrix in="SourceAlpha" type="matrix" values="0 0 0 0 0 0 0 0 0 0 0 0 0 0 0 0 0 0 127 0" result="hardAlpha"/>
<feOffset dy="20"/>
<feGaussianBlur stdDeviation="12.5"/>
<feColorMatrix type="matrix" values="0 0 0 0 0.278431 0 0 0 0 0.32549 0 0 0 0 0.403922 0 0 0 0.05 0"/>
<feBlend mode="normal" in2="effect1_dropShadow_160_745" result="effect2_dropShadow_160_745"/>
<feBlend mode="normal" in="SourceGraphic" in2="effect2_dropShadow_160_745" result="shape"/>
</filter>
<filter id="filter1_d_160_745" x="205.5" y="281" width="136" height="38" filterUnits="userSpaceOnUse" color-interpolation-filters="sRGB">
<feFlood flood-opacity="0" result="BackgroundImageFix"/>
<feColorMatrix in="SourceAlpha" type="matrix" values="0 0 0 0 0 0 0 0 0 0 0 0 0 0 0 0 0 0 127 0" result="hardAlpha"/>
<feOffset dy="1"/>
<feGaussianBlur stdDeviation="1"/>
<feComposite in2="hardAlpha" operator="out"/>
<feColorMatrix type="matrix" values="0 0 0 0 0.894118 0 0 0 0 0.905882 0 0 0 0 0.92549 0 0 0 0.5 0"/>
<feBlend mode="normal" in2="BackgroundImageFix" result="effect1_dropShadow_160_745"/>
<feBlend mode="normal" in="SourceGraphic" in2="effect1_dropShadow_160_745" result="shape"/>
</filter>
<linearGradient id="paint0_linear_160_745" x1="428" y1="180" x2="701" y2="180" gradientUnits="userSpaceOnUse">
<stop stop-color="white" stop-opacity="0.2"/>
<stop offset="1" stop-color="white"/>
</linearGradient>
<linearGradient id="paint1_linear_160_745" x1="284.5" y1="11" x2="284.5" y2="-379.5" gradientUnits="userSpaceOnUse">
<stop stop-color="white" stop-opacity="0.2"/>
<stop offset="1" stop-color="white"/>
</linearGradient>
<linearGradient id="paint2_linear_160_745" x1="113" y1="180" x2="-154" y2="180" gradientUnits="userSpaceOnUse">
<stop stop-color="white" stop-opacity="0.2"/>
<stop offset="1" stop-color="white"/>
</linearGradient>
<clipPath id="clip0_160_745">
<rect width="547" height="362" rx="16" fill="white"/>
</clipPath>
<clipPath id="clip1_160_745">
<rect x="161" y="62" width="225" height="110" rx="8" fill="white"/>
</clipPath>
</defs>
</svg>
