<svg width="74" height="48" viewBox="0 0 74 48" fill="none" xmlns="http://www.w3.org/2000/svg">
<path d="M19.1654 34.9765C19.3349 34.7883 19.5525 34.613 19.6851 34.3874C20.1454 33.604 20.6354 32.8307 21.0076 32.0051C22.2564 29.2327 23.0687 26.3171 23.6942 23.351C24.3531 20.2276 24.7955 17.0774 24.7117 13.8714C24.6159 10.2105 23.7513 6.75143 22.0263 3.51276C21.7658 3.02396 21.5196 2.52684 21.2806 2.02795C21.1872 1.83314 21.1117 1.62467 21.06 1.41502C20.9428 0.936907 21.1022 0.663701 21.5922 0.635193C22.1208 0.604903 22.6679 0.600151 23.1834 0.7029C24.2371 0.912556 25.135 1.44946 25.9027 2.20315C26.9386 3.21995 27.6593 4.43988 28.2076 5.76967C29.0531 7.81931 29.5407 9.95685 29.6436 12.1662C29.7144 13.6855 29.7548 15.2143 29.671 16.7312C29.4837 20.1225 28.5917 23.3582 27.2799 26.4816C26.2553 28.9209 24.9668 31.2087 23.2798 33.2589C22.4324 34.2888 21.4762 35.2034 20.3494 35.931C19.5728 36.4328 18.7278 36.7637 17.818 36.908C16.3611 37.1396 15.1599 36.6847 14.2567 35.5039C13.5467 34.5756 13.1393 33.5042 12.823 32.3953C12.3598 30.7727 12.1076 29.1109 11.9744 27.4313C11.9043 26.547 11.8561 25.6614 11.7092 24.7509C11.6622 24.9071 11.6034 25.0604 11.5707 25.2189C10.9838 28.049 10.3285 30.8618 9.29616 33.5677C8.88823 34.6368 8.35781 35.659 7.89637 36.7078C7.33503 37.983 6.28251 38.2877 5.01831 38.1861C3.77491 38.0863 2.81813 37.4538 2.02428 36.5439C1.07286 35.4535 0.543626 34.1593 0.322419 32.7475C0.213005 32.0479 0.158893 31.328 0.1803 30.6207C0.265334 27.8714 0.408642 25.1233 0.496055 22.374C0.580494 19.7239 0.640552 17.0727 0.673852 14.4214C0.687529 13.3351 0.576925 12.247 0.56979 11.1595C0.566222 10.65 0.636985 10.1315 0.740453 9.63078C0.885545 8.93114 1.11091 8.76009 1.84768 8.70663C3.02566 8.6217 4.08888 8.9543 5.00939 9.68245C6.25694 10.6696 6.94673 11.9899 7.04544 13.5608C7.1162 14.6827 7.0603 15.8159 7.01154 16.942C6.92473 18.9388 6.79807 20.9338 6.69222 22.9299C6.5507 25.5979 6.40382 28.2658 6.27954 30.9343C6.22602 32.0782 6.09044 33.2304 6.34019 34.3666C6.43712 34.8067 6.59767 35.2367 6.77072 35.6548C6.87478 35.9072 7.04306 36.1442 7.43196 36.181C7.54969 35.9648 7.69598 35.735 7.80539 35.4885C8.53264 33.8558 9.01014 32.1393 9.46385 30.4182C10.5746 26.2066 11.4404 21.944 12.0553 17.6321C12.2087 16.5571 12.3532 15.4827 12.1891 14.3852C12.0767 13.6326 12.3193 13.4188 13.0953 13.3185C14.1639 13.1801 15.0588 13.5406 15.7968 14.2729C17.0866 15.5516 17.8132 17.113 17.8614 18.9316C17.9048 20.5733 17.9149 22.2202 17.8322 23.8594C17.6687 27.11 18.0701 30.2964 18.7587 33.4602C18.8633 33.9407 18.9555 34.4242 19.056 34.9059C19.059 34.9195 19.0875 34.9272 19.1648 34.9765H19.1654Z" fill="black"/>
<path d="M57.2716 38.0818C56.966 38.2279 56.7353 38.3686 56.4849 38.4524C55.6025 38.7488 54.7093 39.0125 53.8281 39.3124C52.6971 39.6973 51.6202 40.1926 50.689 40.9623C50.2091 41.3591 49.8089 41.8193 49.5591 42.3943C49.2743 43.0494 49.4135 43.5192 50.0729 43.8078C50.5367 44.0109 51.0493 44.1404 51.5524 44.2099C52.879 44.394 54.2057 44.2633 55.521 44.0703C58.9735 43.5631 62.2892 42.5873 65.4486 41.0995C66.8525 40.4385 68.1714 39.6396 69.3423 38.6116C69.9577 38.0711 70.4888 37.4617 70.8824 36.7407C71.5555 35.5083 71.2089 34.3365 69.953 33.6962C68.913 33.1665 67.7903 32.9247 66.6289 32.8873C64.2849 32.8107 62.0157 33.249 59.7822 33.9166C59.0229 34.1435 58.2629 34.3668 57.4994 34.5794C56.9636 34.7285 56.8025 34.6667 56.5034 34.2124C56.1157 33.6232 55.9854 32.9734 56.1127 32.2821C56.2286 31.6537 56.611 31.2208 57.17 30.9279C57.9186 30.5354 58.738 30.3851 59.5533 30.2194C59.7424 30.1808 59.9327 30.1463 60.1664 30.1012C60.0772 29.8387 59.8637 29.806 59.7085 29.7193C58.6441 29.126 57.6754 28.4174 56.8935 27.4701C55.8635 26.2223 55.4788 24.7535 55.3849 23.1772C55.2059 20.1726 56.1157 17.5617 58.1963 15.3701C58.2766 15.2857 58.3462 15.1919 58.4526 15.0648C58.3259 14.952 58.2225 14.8421 58.1024 14.7572C57.4072 14.2648 56.7085 13.7778 56.0104 13.2896C55.5579 12.9724 55.2528 12.5365 55.0388 12.0388C54.7415 11.3462 54.9424 10.7393 55.6043 10.3686C56.2233 10.0224 56.9119 9.89766 57.61 9.90419C58.1422 9.90894 58.6732 10.001 59.2048 10.0521C59.3327 10.0646 59.4617 10.0687 59.699 10.083C59.5366 9.84361 59.4385 9.68028 59.3226 9.53061C58.7458 8.78702 58.3747 7.93652 58.0084 7.07889C57.6599 6.26462 58.1945 5.48361 59.0425 5.41709C59.693 5.36601 60.3031 5.49608 60.8799 5.79423C61.5424 6.13633 62.0775 6.63345 62.5657 7.1858C62.9951 7.67163 63.4196 8.16162 63.9441 8.76207C63.997 8.42235 64.028 8.21863 64.0601 8.01551C64.1445 7.4887 64.1861 6.95001 64.3229 6.43686C64.6036 5.38442 65.5984 5.14388 66.3762 5.91836C66.9982 6.53783 67.3449 7.31527 67.5768 8.14142C67.7635 8.80721 67.8997 9.48785 68.0585 10.1614C68.1025 10.349 68.1488 10.5361 68.2166 10.8188C68.4301 10.6436 68.5681 10.5094 68.725 10.4049C69.1032 10.1536 69.4695 9.86856 69.8792 9.68325C70.6011 9.35719 71.0911 9.70998 71.0774 10.5017C71.0608 11.4431 70.8521 12.3458 70.5054 13.2177C70.3151 13.6958 70.1195 14.1721 69.9114 14.6425C69.7603 14.9834 69.8049 15.2899 69.9958 15.5999C70.3002 16.0959 70.7213 16.4296 71.2844 16.5835C71.5133 16.6464 71.7482 16.6975 71.9676 16.7848C72.8596 17.1418 73.3555 17.8182 73.4667 18.759C73.5785 19.701 72.9274 20.1773 72.0521 19.8126C71.5769 19.6149 71.109 19.3981 70.6338 19.2003C70.5 19.1445 70.3502 19.1267 70.0707 19.0572C70.2027 19.366 70.2913 19.5525 70.3633 19.7455C70.5631 20.2812 70.8229 20.8057 70.9383 21.3592C71.2808 23.0044 70.3353 24.4227 68.7078 24.7963C68.5395 24.8349 68.3724 24.88 68.172 24.9299C68.2279 25.588 68.4111 26.1647 68.6436 26.7307C69.4868 28.7863 70.4846 30.7622 71.6846 32.6349C72.5284 33.9522 72.8156 35.402 72.6961 36.9486C72.6312 37.7925 72.3054 38.5308 71.7506 39.1461C71.1423 39.8208 70.5244 40.502 69.8275 41.0805C66.403 43.926 62.5687 46.0208 58.2653 47.2229C57.0986 47.5483 55.9117 47.7871 54.698 47.8198C53.0069 47.8649 51.4323 47.5246 50.1193 46.3552C49.3159 45.6395 48.5613 44.8893 48.0529 43.926C47.3625 42.617 47.5213 41.6299 48.616 40.6214C48.9056 40.3547 49.2256 40.1088 49.5645 39.9105C51.6541 38.6864 53.9298 38.0646 56.3333 37.8852C56.6146 37.8644 56.9202 37.8264 57.2687 38.0818H57.2716ZM69.4731 16.3037C69.0307 15.5037 68.5056 14.8753 67.8545 14.3497C66.8406 13.5319 65.6745 13.1351 64.3794 13.2082C62.4123 13.3193 60.7461 14.111 59.4106 15.5631C57.4179 17.7292 56.6699 21.067 58.3224 23.9767C58.9135 25.0172 59.605 25.9758 60.4756 26.7966C62.9505 29.129 65.9516 30.3655 69.2513 30.9713C69.3328 30.9862 69.4237 30.947 69.576 30.922C69.3679 30.4789 69.1841 30.0899 69.0016 29.7003C68.373 28.3563 67.7035 27.0223 67.4597 25.5416C67.377 25.0404 67.1683 24.7387 66.7229 24.4987C65.7233 23.9606 65.3166 23.0929 65.4872 21.968C65.5229 21.734 65.5723 21.5 65.6436 21.2743C65.8577 20.5954 66.0813 19.9195 66.3096 19.2448C66.7425 17.9667 67.6345 17.115 68.8374 16.5585C69.0146 16.4766 69.2008 16.4124 69.4731 16.3037ZM72.6087 19.0833C72.6723 18.4549 72.4029 18.0849 72.0116 17.7862C71.4568 17.3627 70.8081 17.194 70.123 17.1857C69.6788 17.1804 69.2168 17.1162 68.7821 17.3823C68.9605 17.8741 69.328 18.0707 69.7918 18.1978C70.5708 18.411 71.3373 18.6699 72.1091 18.9117C72.2566 18.958 72.4011 19.0114 72.6087 19.0833Z" fill="black"/>
<path d="M43.1448 29.677C43.215 29.4608 43.2887 29.2458 43.3553 29.0284C44.3037 25.9258 45.2885 22.8344 46.5794 19.8535C47.0504 18.766 47.5879 17.7053 48.1338 16.6522C48.3782 16.1807 48.713 15.756 49.0133 15.3141C49.6835 14.3282 50.664 14.0259 51.7689 14.2249C52.4182 14.3419 53.0456 14.6335 53.6527 14.912C54.1445 15.1377 54.3817 15.579 54.2973 16.1349C54.1165 17.3269 53.9304 18.5184 53.7306 19.7074C53.3726 21.833 52.9617 23.9504 52.6489 26.0826C52.3599 28.0538 52.4753 30.031 52.8279 31.9904C52.8939 32.3574 53.0384 32.7102 53.1419 33.0707C53.3078 33.6492 53.1508 33.8897 52.5496 33.9461C51.5625 34.0382 50.7134 33.6789 49.9754 33.0671C48.9098 32.184 48.295 31.0448 48.1172 29.6616C47.9215 28.1358 48.0726 26.6165 48.1796 25.099C48.355 22.6111 48.7035 20.1433 49.1507 17.6898C49.1608 17.6352 49.1453 17.5764 49.0668 17.4921C48.977 17.7177 48.8718 17.9393 48.7992 18.1703C48.0084 20.6785 47.2335 23.1919 46.432 25.6971C45.7749 27.7497 45.1006 29.797 44.4054 31.8365C44.2217 32.3758 43.922 32.8747 43.696 33.4009C43.5711 33.6914 43.3559 33.8 43.0645 33.8666C42.1708 34.0703 40.9184 33.5631 40.5147 32.7452C40.2554 32.2196 39.8255 31.7777 39.5674 31.2521C39.1208 30.3416 38.9008 29.3515 38.7361 28.3532C38.4192 26.4342 38.2961 24.5016 38.3466 22.5576C38.3579 22.127 38.4007 21.7024 38.063 21.327C37.8727 21.1156 37.9809 20.8869 38.2437 20.7503C38.3133 20.7141 38.39 20.6897 38.4661 20.6678C39.5948 20.3441 40.7323 20.2894 41.8651 20.6197C42.7571 20.8798 43.0021 21.2308 42.983 22.1781C42.9491 23.8399 42.8808 25.5017 42.8629 27.1635C42.854 27.9903 42.9254 28.8176 42.9604 29.6444C43.0223 29.6556 43.0841 29.6669 43.146 29.6776L43.1448 29.677Z" fill="black"/>
<path d="M35.1764 20.4633C35.1544 22.2825 35.0813 24.1023 35.1229 25.9197C35.1758 28.2473 35.6956 30.4686 36.9669 32.4624C37.1483 32.7469 37.1334 32.9518 36.9068 33.1947C36.465 33.6675 35.9513 33.9418 35.2876 33.9359C34.2185 33.9264 33.3241 33.5695 32.6177 32.7397C31.7293 31.6956 31.2946 30.4573 31.0032 29.1518C30.678 27.6949 30.6286 26.2119 30.6013 24.7271C30.5614 22.5658 30.7368 20.4182 30.9848 18.2741C31.03 17.8809 31.1953 17.6719 31.63 17.6297C32.0587 17.5881 32.5023 17.5947 32.9275 17.6594C33.5406 17.7526 34.096 18.0193 34.6038 18.3828C35.0551 18.7059 35.3067 19.1193 35.2656 19.6924C35.2472 19.9484 35.2627 20.2067 35.2627 20.4639C35.2341 20.4639 35.2056 20.4639 35.1776 20.4633H35.1764Z" fill="black"/>
<path d="M33.4692 11.1097C35.186 10.9309 36.7065 12.5013 37.0966 13.6321C37.4813 14.7487 36.936 15.5624 35.7461 15.6538C34.8589 15.7221 34.0169 15.5107 33.1921 15.2131C32.4227 14.9358 31.7317 14.5289 31.0824 14.0265C30.1 13.2663 30.4693 11.7874 31.5545 11.4756C32.1765 11.2968 32.83 11.2279 33.4687 11.1091L33.4692 11.1097Z" fill="black"/>
<path d="M72.6096 19.083C72.4021 19.0111 72.257 18.9576 72.1101 18.9113C71.3389 18.6702 70.5724 18.4112 69.7928 18.1974C69.329 18.0703 68.9615 17.8731 68.7831 17.3819C69.2172 17.1159 69.6798 17.18 70.124 17.1854C70.8096 17.1937 71.4578 17.3623 72.0126 17.7858C72.4039 18.0846 72.6733 18.4546 72.6096 19.083Z" fill="black"/>
<path d="M65.0251 15.4248C65.5692 15.4219 65.9539 15.8127 65.9444 16.3603C65.9349 16.9322 65.4491 17.4163 64.883 17.4198C64.3615 17.4228 63.9476 16.9999 63.9571 16.4731C63.9672 15.9023 64.4501 15.4284 65.0251 15.4248Z" fill="black"/>
</svg>
